<svg width="132" height="131" viewBox="0 0 132 131" fill="none" xmlns="http://www.w3.org/2000/svg">
<g clip-path="url(#clip0_1958_54903)">
<path fill-rule="evenodd" clip-rule="evenodd" d="M52.1416 62.2821C49.611 61.8933 47.3217 60.6103 45.5204 58.1625C39.9487 50.5902 41.3328 42.7588 46.0217 35.8009C52.8687 25.6414 66.8592 17.3845 75.7415 14.7526C76.1621 14.6274 76.6033 14.8683 76.7268 15.2876C76.852 15.7081 76.6126 16.1505 76.1921 16.2756C67.5709 18.8296 53.9832 26.8294 47.3375 36.6888C43.0323 43.0777 41.6819 50.2671 46.8003 57.2215C48.3222 59.2923 50.2578 60.3685 52.3967 60.7027C52.6366 59.3084 52.9127 57.9391 53.2255 56.5978C54.0899 52.8955 58.0779 43.8279 63.0636 38.7269C66.641 35.0686 70.7256 33.4503 74.5825 36.5594C76.7259 38.288 77.2687 40.8592 76.582 43.7672C75.6402 47.7658 72.3047 52.4478 68.0273 56.1087C64.4665 59.1573 60.263 61.4962 56.299 62.1934C55.4274 62.3449 54.5673 62.4219 53.7268 62.4106C50.7665 81.8125 54.9044 105.224 65.0647 121.519C65.2948 121.891 65.1834 122.38 64.81 122.612C64.4383 122.845 63.9484 122.731 63.717 122.36C53.3922 105.799 49.1657 82.0248 52.1416 62.2821ZM53.9872 60.8176C54.2155 59.5077 54.477 58.2205 54.7719 56.9588C55.6014 53.4112 59.4219 44.7249 64.1991 39.8377C67.1304 36.838 70.4255 35.2473 73.5866 37.7953C75.246 39.1344 75.567 41.1508 75.038 43.4031C74.4533 45.88 72.8596 48.6227 70.692 51.1896C67.4011 55.0866 62.783 58.5732 58.237 60.0662C56.797 60.5399 55.3639 60.8097 53.9872 60.8176Z" fill="#101828"/>
<path fill-rule="evenodd" clip-rule="evenodd" d="M69.5453 92.2476C65.1534 100.639 63.9749 112.243 65.0282 121.705C65.0767 122.14 64.7621 122.533 64.327 122.581C63.8919 122.63 63.4982 122.317 63.4497 121.882C62.3624 112.124 63.6115 100.163 68.1385 91.512C68.3409 91.1246 68.821 90.9743 69.21 91.1779C69.5973 91.3802 69.7476 91.8602 69.5453 92.2476Z" fill="#101828"/>
<path fill-rule="evenodd" clip-rule="evenodd" d="M63.2673 121.952C60.1956 114.69 52.1734 107.889 44.8844 104.819C44.4799 104.649 44.2886 104.183 44.4602 103.78C44.6303 103.376 45.095 103.186 45.4995 103.356C53.1354 106.572 61.5109 113.726 64.7292 121.334C64.9006 121.737 64.7104 122.204 64.3076 122.376C63.9031 122.546 63.4374 122.357 63.2673 121.952Z" fill="#101828"/>
</g>
<defs>
<clipPath id="clip0_1958_54903">
<rect width="93.3651" height="93.3651" fill="white" transform="matrix(0.795014 0.606591 0.606591 -0.795014 0.5979 74.2706)"/>
</clipPath>
</defs>
</svg>
