<svg width="960" height="960" viewBox="0 0 960 960" fill="none" xmlns="http://www.w3.org/2000/svg">
<g clip-path="url(#clip0_38_4065)">
<path d="M864.963 623.53C874.781 653.557 853.533 681.069 830.411 697.713C799.199 696.441 768.259 695.13 736.811 693.742L736.84 693.052C745.881 689.42 755.592 685.536 764.332 680.68L778.899 671.94C807.283 654.427 832.071 631.666 851.936 604.875L851.946 604.885C858.069 609.642 862.607 616.143 864.963 623.53V623.53Z" fill="url(#paint0_linear_38_4065)"/>
<path d="M804.462 385.373C808.343 406.588 809.505 428.211 807.92 449.719C803.443 512.035 776.795 572.885 732.629 617.219V433.433C747.157 407.281 774.737 388.8 804.462 385.373Z" fill="url(#paint1_linear_38_4065)"/>
<path d="M732.629 643.04V617.218C776.795 572.886 803.443 512.036 807.92 449.718L809.25 449.805C837.17 434.015 869.216 421.39 902.234 423.333C906.996 472.161 897.962 521.345 876.159 565.293C854.356 609.242 820.659 646.191 778.9 671.94L764.333 680.68C755.593 685.536 745.882 689.42 736.841 693.052L736.811 693.742C731.936 693.518 727.045 693.297 722.138 693.081L721 692.654C724.681 689.153 727.611 684.939 729.611 680.269C731.611 675.6 732.639 670.572 732.634 665.492V643.04H732.629Z" fill="#5E71E4"/>
<path d="M682.354 466.752V612.759C682.355 613.76 681.959 614.72 681.253 615.428C680.547 616.137 679.588 616.536 678.587 616.537H665.564C665.068 616.538 664.577 616.44 664.118 616.25C663.66 616.061 663.243 615.782 662.892 615.431C662.541 615.081 662.263 614.664 662.073 614.205C661.883 613.747 661.786 613.256 661.786 612.759V466.752C661.788 465.752 662.187 464.793 662.895 464.086C663.603 463.38 664.564 462.983 665.564 462.984H678.587C679.586 462.985 680.544 463.383 681.25 464.089C681.956 464.796 682.353 465.753 682.354 466.752V466.752Z" fill="#5E71E4"/>
<path d="M676.023 418.332C674.187 430.364 672.358 442.399 670.536 454.438L658.9 443.1C646.693 456.142 634.033 468.737 620.92 480.886C598.08 502.051 573.961 521.793 548.7 540C536.58 548.74 523.606 559.782 510.02 566.1C495.706 572.762 495.22 558.6 506.184 551.951C559.175 519.739 607.162 479.941 648.618 433.822L639.237 423.246C651.502 421.605 663.764 419.967 676.023 418.332Z" fill="url(#paint2_linear_38_4065)"/>
<path d="M643.51 508.113V612.76C643.511 613.76 643.115 614.72 642.409 615.429C641.702 616.137 640.743 616.536 639.742 616.538H626.719C626.223 616.538 625.732 616.44 625.273 616.251C624.815 616.061 624.398 615.783 624.048 615.432C623.697 615.081 623.419 614.664 623.229 614.206C623.039 613.747 622.942 613.256 622.942 612.76V508.113C622.942 507.617 623.04 507.126 623.23 506.669C623.42 506.211 623.698 505.795 624.049 505.445C624.4 505.095 624.816 504.817 625.274 504.629C625.733 504.44 626.224 504.343 626.719 504.345H639.742C640.237 504.344 640.727 504.442 641.185 504.631C641.642 504.82 642.058 505.098 642.408 505.447C642.758 505.797 643.035 506.213 643.224 506.67C643.414 507.128 643.511 507.618 643.51 508.113Z" fill="#5E71E4"/>
<path d="M627.574 277.326C628.32 277.326 629.049 277.548 629.669 277.963C630.289 278.378 630.772 278.967 631.057 279.656C631.342 280.346 631.416 281.104 631.269 281.835C631.123 282.567 630.763 283.238 630.235 283.765C629.888 284.117 629.473 284.397 629.016 284.587C628.559 284.777 628.069 284.874 627.574 284.872H563.14C562.14 284.872 561.18 284.475 560.472 283.767C559.765 283.06 559.367 282.1 559.367 281.099C559.367 280.099 559.765 279.139 560.472 278.431C561.18 277.724 562.14 277.326 563.14 277.326H627.574Z" fill="#5E71E4"/>
<path d="M605.636 550.153V612.76C605.637 613.255 605.54 613.746 605.351 614.204C605.162 614.662 604.885 615.078 604.535 615.429C604.185 615.78 603.769 616.058 603.312 616.249C602.854 616.439 602.364 616.537 601.868 616.538H588.846C588.35 616.538 587.859 616.441 587.4 616.251C586.942 616.061 586.525 615.783 586.174 615.432C585.823 615.081 585.545 614.664 585.355 614.206C585.166 613.747 585.068 613.256 585.068 612.76V550.153C585.069 549.657 585.167 549.167 585.357 548.709C585.548 548.252 585.826 547.836 586.177 547.486C586.528 547.136 586.944 546.859 587.402 546.67C587.86 546.481 588.351 546.384 588.846 546.385H601.868C602.867 546.386 603.825 546.783 604.532 547.489C605.238 548.196 605.636 549.154 605.636 550.153Z" fill="#5E71E4"/>
<path d="M595.352 255.225C596.82 255.224 598.256 255.658 599.478 256.474C600.7 257.289 601.652 258.449 602.215 259.805C602.777 261.162 602.925 262.655 602.638 264.096C602.352 265.536 601.645 266.86 600.606 267.898C599.568 268.937 598.244 269.644 596.804 269.93C595.363 270.217 593.87 270.069 592.513 269.507C591.157 268.944 589.997 267.992 589.182 266.77C588.366 265.548 587.932 264.112 587.933 262.644C587.933 260.676 588.715 258.789 590.106 257.398C591.497 256.007 593.384 255.225 595.352 255.225V255.225Z" fill="#5E71E4"/>
<path d="M586.117 374.166C598.994 388.422 603.898 413.933 596.817 429.266C593.199 437.145 587.565 443.929 580.485 448.933C573.406 453.937 565.13 456.984 556.496 457.766C545.134 458.699 526.586 453.843 511.961 438.412L512.155 438.227C520.893 447.124 532.693 452.357 545.154 452.859C557.614 453.361 569.797 449.096 579.223 440.931C588.649 432.767 594.609 421.316 595.889 408.912C597.17 396.507 593.674 384.081 586.115 374.163L586.117 374.166Z" fill="url(#paint3_linear_38_4065)"/>
<path d="M587.661 396.065C589.214 404.077 588.356 412.37 585.196 419.895C582.035 427.419 576.715 433.838 569.907 438.339C563.099 442.839 555.109 445.22 546.948 445.18C538.787 445.14 530.821 442.681 524.057 438.113C517.294 433.546 512.037 427.075 508.951 419.52C505.865 411.965 505.088 403.664 506.72 395.667C508.351 387.671 512.317 380.338 518.117 374.595C523.916 368.853 531.288 364.959 539.3 363.406C544.62 362.375 550.091 362.402 555.4 363.485C560.71 364.568 565.754 366.687 570.244 369.72C574.735 372.752 578.585 376.64 581.573 381.16C584.561 385.681 586.63 390.745 587.661 396.065V396.065Z" fill="url(#paint4_linear_38_4065)"/>
<path d="M565.821 572.323V612.76C565.822 613.76 565.426 614.721 564.719 615.429C564.013 616.137 563.053 616.536 562.053 616.538H549.03C548.534 616.538 548.042 616.441 547.584 616.251C547.125 616.061 546.709 615.783 546.358 615.432C546.007 615.081 545.729 614.664 545.539 614.206C545.349 613.748 545.252 613.256 545.252 612.76V572.323C545.252 571.827 545.349 571.335 545.539 570.877C545.729 570.418 546.007 570.002 546.358 569.651C546.709 569.3 547.125 569.022 547.584 568.832C548.042 568.642 548.534 568.545 549.03 568.545H562.053C563.053 568.547 564.013 568.945 564.719 569.654C565.426 570.362 565.822 571.322 565.821 572.323V572.323Z" fill="#5E71E4"/>
<path d="M548.234 284.755C550.46 284.755 552.264 282.951 552.264 280.725C552.264 278.5 550.46 276.695 548.234 276.695C546.008 276.695 544.204 278.5 544.204 280.725C544.204 282.951 546.008 284.755 548.234 284.755Z" fill="#5E71E4"/>
<path d="M528.918 587.86V612.76C528.918 613.256 528.821 613.746 528.632 614.204C528.443 614.662 528.166 615.079 527.816 615.429C527.466 615.78 527.051 616.059 526.593 616.249C526.136 616.439 525.645 616.537 525.15 616.538H512.128C511.631 616.538 511.14 616.441 510.682 616.251C510.223 616.061 509.806 615.783 509.456 615.432C509.105 615.081 508.826 614.665 508.637 614.206C508.447 613.748 508.349 613.256 508.35 612.76V587.86C508.349 587.364 508.447 586.872 508.637 586.414C508.826 585.956 509.105 585.539 509.456 585.188C509.806 584.837 510.223 584.559 510.682 584.369C511.14 584.179 511.631 584.082 512.128 584.082H525.15C525.645 584.083 526.136 584.181 526.593 584.371C527.051 584.561 527.466 584.84 527.816 585.191C528.166 585.541 528.443 585.958 528.632 586.416C528.821 586.874 528.918 587.365 528.918 587.86V587.86Z" fill="#5E71E4"/>
<path d="M458.085 643.04V665.492C458.076 672.729 460.167 679.813 464.106 685.885L463.378 686.371C447.588 686.215 431.804 686.111 416.026 686.06L415.395 685.96C416.172 680.211 414.404 674.074 410.064 670.276C399.226 660.789 380.143 669.432 368.956 660.361L368.684 660.161C369.71 658.854 370.592 657.442 371.316 655.947C375.375 647.547 373.851 637.641 372.239 628.454C366.305 594.582 360.595 561.321 354.817 527.866L355.487 527.75C367.665 518.466 385.038 516.3 398.987 522.778C394.923 515.922 393.301 507.891 394.387 499.995C396.193 485.633 406.011 473.018 420.364 469.658C434.174 466.424 449.692 470.541 458.092 482.195V643.04H458.085Z" fill="url(#paint5_linear_38_4065)"/>
<path d="M257.725 481.309C255.897 481.286 254.075 481.088 252.286 480.717C248.004 479.785 243.838 477.376 241.837 473.492C239.836 469.608 240.637 464.169 244.294 461.77L244.333 461.003C233.554 460.488 222.959 458.721 212.927 454.703C206.362 452.071 200.011 448.371 195.661 442.797C190.378 436.038 188.523 427.162 188.494 418.587C188.416 396.611 199.73 375.295 216.802 361.446C233.855 347.627 256.151 340.995 278.102 341.199C278.902 341.745 279.842 342.051 280.811 342.082C287.361 342.662 293.945 342.766 300.511 342.393C306.192 342.209 311.879 342.022 317.573 341.83C318.991 341.781 320.409 341.743 321.837 341.694C322.769 341.665 324.507 341.946 325.294 341.383C325.515 341.215 325.692 340.995 325.809 340.742C338.19 339.713 348.232 331.031 357.496 322.748C379.629 302.966 401.762 283.191 423.896 263.422C430.364 257.634 437.171 251.672 445.552 249.409C445.435 249.943 445.328 250.467 445.222 251.002C442.544 263.728 440.598 276.597 439.395 289.545C439.133 292.303 439.453 295.896 442.104 296.654C442.519 296.765 442.953 296.79 443.379 296.728C443.805 296.666 444.214 296.519 444.581 296.294L444.61 296.353C412.932 322.33 383.362 347.375 352.053 373.187C352.625 401.825 353.195 430.47 353.762 459.121C353.849 463.87 353.645 469.308 350.004 472.348C348.686 473.386 347.142 474.098 345.498 474.426C343.927 474.741 342.337 474.949 340.739 475.048C315.605 477.02 290.476 478.994 265.352 480.971C262.823 481.164 260.259 481.367 257.725 481.309ZM297.317 426.431C297.392 427.313 297.405 428.199 297.356 429.083C297.142 434.443 296.925 439.801 296.705 445.155C296.679 446.908 296.507 448.655 296.191 450.379L296.375 450.418C301.901 450.975 307.468 451.002 313 450.5C314.718 450.344 328.586 444.76 315.67 441.915C314.553 441.672 313.446 441.449 312.339 441.293C317.671 441.284 324.239 440.4 318.787 434.923C317.399 433.523 315.379 433.292 313.262 433.408C321.676 432.461 330.031 431.041 338.287 429.155C339.938 428.727 341.9 427.955 342.133 426.255C342.405 424.216 339.958 422.982 337.947 422.536C328.965 420.564 314.223 422.069 305.891 425.973C308.863 422.031 317.807 412.009 313.679 409.29C308.018 405.561 298.979 419.836 297.403 426.43L297.317 426.431Z" fill="url(#paint6_linear_38_4065)"/>
<path d="M296.22 528.594L295.841 528.633C294.287 545.074 290.529 562.058 279.983 574.761C272 584.361 260.683 590.755 248.82 594.63C236.957 598.505 224.464 600.019 212.034 601.23C200.186 602.386 188.028 603.269 176.559 600.065C167.547 597.55 158.953 592.005 154.126 584.177C152.799 582.038 151.776 579.724 151.087 577.302C147.887 565.92 152.563 553.888 158.049 543.41C160.128 539.428 162.555 535.33 165.731 532.242C167.649 530.286 169.987 528.791 172.568 527.872C180.074 525.299 188.115 528.756 195.884 530.407C203.265 531.98 210.901 531.901 218.248 530.177C225.594 528.453 232.468 525.126 238.378 520.434C244.288 515.741 249.087 509.8 252.432 503.036C255.777 496.272 257.584 488.852 257.725 481.307C260.259 481.365 262.825 481.161 265.358 480.967C290.48 478.986 315.609 477.012 340.745 475.043C342.344 474.943 343.934 474.736 345.504 474.422L345.591 474.81C348.708 492.63 351.767 510.275 354.817 527.862C360.595 561.317 366.305 594.578 372.239 628.45C373.851 637.637 375.375 647.542 371.316 655.943C370.592 657.438 369.71 658.85 368.684 660.157C365.438 664.161 361.292 667.342 356.584 669.441C350.427 672.325 343.707 673.741 337.055 675.103C334.27 675.714 331.443 676.115 328.597 676.303C324.363 676.526 320.245 675.915 316.943 673.37C311.699 669.34 310.592 662.028 309.883 655.453C307.222 630.777 304.564 606.101 301.91 581.425C300.008 563.814 298.111 546.203 296.22 528.594Z" fill="#5E71E4"/>
<path d="M328.9 685.672L328.56 685.71C290.008 685.643 251.587 685.854 213.298 686.342L213.288 685.542C210.403 678.238 209.567 670.286 210.87 662.542C213.114 648.549 221.805 636.07 234.76 630.042C247.695 624.031 263.65 624.39 275.984 631.732C273.303 611.941 283.451 591.232 300.951 581.532L301.912 581.425C304.574 606.101 307.231 630.777 309.885 655.453C310.594 662.028 311.701 669.34 316.945 673.37C320.245 675.915 324.365 676.526 328.599 676.303C328.461 679.429 328.562 682.561 328.9 685.672Z" fill="url(#paint7_linear_38_4065)"/>
<path d="M278.1 341.2C277.994 341.116 277.896 341.022 277.808 340.918C277.486 340.426 277.268 339.873 277.166 339.294C277.064 338.715 277.081 338.121 277.216 337.548C277.318 335.801 277.925 334.121 278.964 332.712C280.634 330.789 283.402 330.352 285.927 330.061C285.946 330.061 285.975 330.051 285.995 330.051C292.259 329.342 298.532 328.751 304.815 328.158C307.204 327.934 309.603 327.721 312.001 327.658C314.164 327.564 316.332 327.655 318.479 327.93C320.347 328.06 322.139 328.719 323.645 329.83C325.127 331.202 326.031 333.088 326.17 335.103C326.296 336.298 326.57 339.269 325.811 340.745C325.695 340.998 325.518 341.218 325.296 341.386C324.509 341.949 322.771 341.668 321.839 341.697C320.411 341.745 318.993 341.784 317.576 341.833C311.885 342.017 306.198 342.205 300.513 342.396C293.948 342.769 287.364 342.665 280.813 342.085C279.843 342.054 278.902 341.747 278.1 341.2V341.2Z" fill="url(#paint8_linear_38_4065)"/>
<path d="M287.858 281.464C285.733 292.53 284.779 303.789 285.013 315.055H284.974C284.974 318.726 278.662 321.096 275.331 319.542C272 317.988 270.485 313.822 271.039 310.18C271.229 309 271.575 307.85 272.068 306.762C272.287 306.632 272.495 306.486 272.69 306.325C274.438 304.878 275.36 302.693 276.215 300.595C274.53 302.43 273.132 304.509 272.068 306.762C270.33 307.84 267.931 307.995 266.504 306.577C265.004 305.092 265.163 302.654 265.678 300.615C266.432 297.624 267.722 294.794 269.485 292.263C270.23 291.98 270.889 291.509 271.398 290.896C271.906 290.282 272.246 289.547 272.385 288.763C271.316 289.841 270.346 291.012 269.485 292.263C268.653 292.646 267.741 292.822 266.826 292.777C265.911 292.731 265.021 292.465 264.231 292.001C261.298 290.136 260.483 285.922 261.813 282.707C263.347 278.969 266.96 276.696 270.679 274.89C271.388 274.579 272.087 274.249 272.779 273.909C272.089 274.22 271.379 274.55 270.679 274.89C269.125 275.638 267.458 276.126 265.746 276.337C263.27 276.56 260.531 275.737 259.152 273.657C258.585 272.681 258.271 271.578 258.241 270.45C258.21 269.322 258.463 268.204 258.977 267.199C260.039 265.197 261.564 263.479 263.425 262.188C269.716 257.425 277.494 255.053 285.372 255.497C284.753 253.434 284.768 251.234 285.416 249.18C286.063 247.126 287.313 245.315 289.002 243.98C290.692 242.645 292.743 241.849 294.891 241.695C297.039 241.541 299.183 242.035 301.046 243.115C300.746 241.782 300.851 240.391 301.345 239.118C301.84 237.845 302.703 236.748 303.823 235.968C304.98 235.245 306.357 234.957 307.706 235.155C309.056 235.352 310.292 236.022 311.194 237.046C311.814 237.851 312.158 238.835 312.175 239.852C311.296 241.2 310.564 242.639 309.99 244.144C310.706 243.69 311.286 243.052 311.671 242.297C312.055 241.542 312.229 240.697 312.175 239.852C313.249 238.161 314.694 236.736 316.399 235.686C319.499 233.851 323.877 233.841 326.412 236.405C328.703 238.726 328.451 243.173 325.887 244.941C325.587 245.096 325.295 245.252 324.994 245.407C325.31 245.288 325.609 245.132 325.887 244.941C328.373 243.659 330.976 242.464 333.763 242.426C336.88 242.377 340.263 244.261 340.813 247.32C341.25 249.738 339.823 252.176 337.861 253.642C336.648 254.513 335.304 255.185 333.879 255.633C332.938 255.833 332.016 256.112 331.122 256.468C332.044 256.206 332.976 255.943 333.879 255.633C337.958 254.778 342.474 255.419 344.367 258.925C346.591 263.042 343.26 268.393 338.881 270.025C334.569 271.625 330.228 271.141 325.742 270.18C325.664 270.161 325.586 270.151 325.508 270.131H324.664C319.464 270.131 314.496 268.082 309.437 266.839C304.212 265.558 298.201 265.286 293.967 268.587C290.14 271.578 288.781 276.687 287.858 281.464Z" fill="#5E71E4"/>
<path d="M312 327.563C310.077 326.063 309.98 321.086 311.146 318.94C312.312 316.794 314.409 315.327 316.458 314.006C318.507 312.685 320.672 311.365 322.058 309.355C323.68 306.995 324.039 304.023 324.311 301.178C325.286 290.974 325.743 280.727 325.68 270.478" stroke="#5E71E4" stroke-width="2.913" stroke-linecap="round" stroke-linejoin="round"/>
<path d="M317.623 274.259C313.467 274.696 309.31 275.136 305.154 275.579C306.057 281.338 306.963 287.094 307.873 292.846C308.145 294.546 308.388 296.39 307.573 297.905C306.758 299.42 304.427 300.197 303.3 298.896" stroke="#5E71E4" stroke-width="2.913" stroke-linecap="round" stroke-linejoin="round"/>
<path d="M293.617 282.1C294.524 281.647 295.526 281.413 296.54 281.42C297.554 281.427 298.552 281.673 299.453 282.138" stroke="#5E71E4" stroke-width="2.913" stroke-linecap="round" stroke-linejoin="round"/>
<path d="M310.408 282.774C311.196 282.357 312.064 282.115 312.954 282.065C313.844 282.014 314.735 282.157 315.564 282.483" stroke="#5E71E4" stroke-width="2.913" stroke-linecap="round" stroke-linejoin="round"/>
<path d="M299.191 310.258C298.395 310.372 297.585 310.315 296.813 310.092C296.041 309.869 295.325 309.484 294.712 308.964C294.1 308.443 293.605 307.798 293.261 307.072C292.916 306.346 292.73 305.555 292.714 304.752" stroke="#5E71E4" stroke-width="2.913" stroke-linecap="round" stroke-linejoin="round"/>
<path d="M285.965 329.747C285.421 324.863 285.104 319.966 285.013 315.054C284.779 303.788 285.733 292.529 287.858 281.463C288.781 276.685 290.14 271.577 293.967 268.586C298.201 265.286 304.212 265.557 309.437 266.838C314.496 268.081 319.468 270.13 324.664 270.13C324.829 270.13 324.994 270.121 325.164 270.121" stroke="#5E71E4" stroke-width="2.913" stroke-linecap="round" stroke-linejoin="round"/>
<path d="M272.068 306.762C271.575 307.85 271.229 309 271.039 310.18C270.485 313.822 271.99 317.988 275.331 319.542C278.672 321.096 284.974 318.726 284.974 315.055V315.026" stroke="#5E71E4" stroke-width="2.913" stroke-linecap="round" stroke-linejoin="round"/>
<path d="M272.068 306.762C272.287 306.633 272.495 306.486 272.69 306.325C274.438 304.878 275.36 302.693 276.215 300.595C274.53 302.43 273.132 304.509 272.068 306.762V306.762Z" stroke="#5E71E4" stroke-width="2.913" stroke-linecap="round" stroke-linejoin="round"/>
<path d="M269.485 292.263C267.722 294.794 266.433 297.624 265.678 300.615C265.163 302.654 265.008 305.092 266.504 306.577C267.931 307.995 270.33 307.84 272.068 306.762" stroke="#5E71E4" stroke-width="2.913" stroke-linecap="round" stroke-linejoin="round"/>
<path d="M269.485 292.263C270.23 291.98 270.889 291.509 271.398 290.896C271.906 290.282 272.247 289.547 272.385 288.763C271.316 289.841 270.346 291.012 269.485 292.263V292.263Z" stroke="#5E71E4" stroke-width="2.913" stroke-linecap="round" stroke-linejoin="round"/>
<path d="M270.679 274.89C266.96 276.696 263.347 278.969 261.813 282.707C260.483 285.922 261.298 290.136 264.231 292.001C265.02 292.465 265.911 292.732 266.825 292.777C267.74 292.823 268.653 292.646 269.485 292.263" stroke="#5E71E4" stroke-width="2.913" stroke-linecap="round" stroke-linejoin="round"/>
<path d="M270.679 274.889C271.388 274.578 272.087 274.248 272.779 273.908C272.087 274.219 271.379 274.549 270.679 274.889Z" stroke="#5E71E4" stroke-width="2.913" stroke-linecap="round" stroke-linejoin="round"/>
<path d="M312.175 239.851C312.159 238.835 311.815 237.851 311.194 237.045C310.292 236.022 309.057 235.352 307.707 235.154C306.357 234.957 304.981 235.245 303.824 235.967C302.703 236.748 301.84 237.844 301.345 239.117C300.851 240.39 300.746 241.782 301.046 243.114C299.183 242.034 297.038 241.539 294.89 241.694C292.741 241.848 290.689 242.645 288.999 243.98C287.31 245.315 286.06 247.128 285.413 249.182C284.766 251.236 284.752 253.438 285.372 255.5C277.494 255.057 269.716 257.428 263.425 262.191C261.564 263.483 260.039 265.201 258.977 267.202C258.463 268.207 258.21 269.325 258.241 270.454C258.271 271.582 258.585 272.685 259.152 273.66C260.531 275.738 263.27 276.56 265.746 276.34C267.458 276.13 269.125 275.641 270.679 274.893" stroke="#5E71E4" stroke-width="2.913" stroke-linecap="round" stroke-linejoin="round"/>
<path d="M312.175 239.852C311.296 241.2 310.564 242.639 309.99 244.144C310.706 243.69 311.286 243.052 311.671 242.297C312.055 241.542 312.23 240.697 312.175 239.852V239.852Z" stroke="#5E71E4" stroke-width="2.913" stroke-linecap="round" stroke-linejoin="round"/>
<path d="M325.887 244.941C328.451 243.173 328.703 238.726 326.412 236.405C323.877 233.841 319.497 233.851 316.399 235.686C314.693 236.736 313.249 238.161 312.175 239.852" stroke="#5E71E4" stroke-width="2.913" stroke-linecap="round" stroke-linejoin="round"/>
<path d="M325.887 244.94C325.587 245.095 325.295 245.251 324.994 245.406C325.31 245.288 325.609 245.131 325.887 244.94V244.94Z" stroke="#5E71E4" stroke-width="2.913" stroke-linecap="round" stroke-linejoin="round"/>
<path d="M333.879 255.633C335.303 255.185 336.648 254.513 337.861 253.642C339.823 252.176 341.25 249.742 340.813 247.32C340.26 244.261 336.88 242.377 333.763 242.426C330.976 242.464 328.373 243.659 325.887 244.941" stroke="#5E71E4" stroke-width="2.913" stroke-linecap="round" stroke-linejoin="round"/>
<path d="M333.879 255.633C332.938 255.833 332.016 256.112 331.122 256.468C332.044 256.206 332.976 255.943 333.879 255.633Z" stroke="#5E71E4" stroke-width="2.913" stroke-linecap="round" stroke-linejoin="round"/>
<path d="M325.508 270.131C325.586 270.151 325.664 270.16 325.742 270.179C330.228 271.14 334.569 271.626 338.881 270.024C343.26 268.392 346.591 263.042 344.368 258.925C342.474 255.419 337.958 254.778 333.879 255.633" stroke="#5E71E4" stroke-width="2.913" stroke-linecap="round" stroke-linejoin="round"/>
<path d="M325.81 340.741C326.567 339.265 326.295 336.294 326.169 335.099C326.03 333.084 325.127 331.198 323.644 329.826C322.138 328.714 320.346 328.055 318.478 327.926C316.331 327.649 314.163 327.557 312 327.651C309.6 327.719 307.2 327.932 304.814 328.151C298.531 328.743 292.257 329.335 285.994 330.044C285.974 330.044 285.945 330.054 285.926 330.054C283.401 330.345 280.633 330.782 278.963 332.705C277.924 334.113 277.317 335.793 277.215 337.541C277.08 338.113 277.063 338.707 277.165 339.286C277.267 339.866 277.485 340.418 277.807 340.911C277.895 341.014 277.993 341.109 278.099 341.193C278.9 341.738 279.84 342.045 280.808 342.076C287.359 342.656 293.943 342.76 300.508 342.387C306.19 342.203 311.877 342.015 317.57 341.824C318.988 341.775 320.406 341.737 321.834 341.688C322.766 341.659 324.504 341.941 325.291 341.377C325.513 341.21 325.691 340.992 325.81 340.741Z" stroke="#5E71E4" stroke-width="2.913" stroke-linecap="round" stroke-linejoin="round"/>
<path d="M278.176 341.201H278.1C256.152 341.001 233.856 347.629 216.8 361.448C199.728 375.297 188.414 396.613 188.492 418.589C188.521 427.164 190.376 436.04 195.659 442.799C200.009 448.373 206.359 452.073 212.925 454.705C222.957 458.725 233.552 460.492 244.331 461.005C257.231 461.627 270.396 460.481 283.263 459.277C287.021 458.927 291.129 458.422 293.712 455.677C295.023 454.183 295.882 452.347 296.189 450.384C296.505 448.66 296.677 446.912 296.703 445.16C296.927 439.799 297.144 434.442 297.354 429.088C297.403 428.204 297.39 427.318 297.315 426.436C297.258 425.113 296.699 423.861 295.752 422.936C294.314 421.664 292.188 421.693 290.274 421.8L264.346 423.169C258.146 423.489 251.44 423.669 246.361 420.11C240.311 415.856 238.592 407.378 240.019 400.11C242.874 385.65 257.257 374.385 271.979 375.094" stroke="#5E71E4" stroke-width="2.913" stroke-linecap="round" stroke-linejoin="round"/>
<path d="M325.79 340.74H325.81C338.191 339.711 348.233 331.029 357.497 322.746C379.63 302.964 401.764 283.189 423.897 263.42C430.365 257.632 437.172 251.67 445.553 249.407C445.436 249.941 445.329 250.465 445.223 251C442.545 263.726 440.6 276.595 439.396 289.543C439.134 292.301 439.454 295.894 442.105 296.652C442.521 296.763 442.955 296.788 443.38 296.726C443.806 296.664 444.215 296.517 444.582 296.292C445.597 295.714 446.373 294.792 446.767 293.692C447.427 291.808 449.185 285.661 448.903 283.582C448.903 283.553 448.893 283.524 448.893 283.495" stroke="#5E71E4" stroke-width="2.913" stroke-linecap="round" stroke-linejoin="round"/>
<path d="M444.616 296.352C412.938 322.329 383.368 347.374 352.059 373.186C349.087 375.633 346.099 378.09 343.095 380.557" stroke="#5E71E4" stroke-width="2.913" stroke-linecap="round" stroke-linejoin="round"/>
<path d="M244.294 461.77C240.633 464.17 239.827 469.598 241.837 473.492C243.847 477.386 248.004 479.785 252.286 480.717C254.076 481.088 255.897 481.286 257.725 481.309C260.259 481.367 262.825 481.164 265.358 480.969C290.48 478.989 315.609 477.014 340.745 475.045C342.344 474.946 343.933 474.739 345.504 474.424C347.149 474.096 348.692 473.384 350.01 472.346C353.651 469.306 353.855 463.868 353.768 459.119C353.195 430.471 352.626 401.827 352.059 373.185C352.059 372.985 352.049 372.777 352.049 372.573" stroke="#5E71E4" stroke-width="2.913" stroke-linecap="round" stroke-linejoin="round"/>
<path d="M312.34 441.29C313.447 441.445 314.554 441.668 315.671 441.911C328.587 444.756 314.719 450.34 313.001 450.496C307.469 451 301.902 450.973 296.375 450.418" stroke="#5E71E4" stroke-width="2.913" stroke-linecap="round" stroke-linejoin="round"/>
<path d="M312.34 441.291C310.427 441.3 308.669 441.191 307.679 441.145C309.233 441.008 310.797 441.057 312.34 441.291V441.291Z" stroke="#5E71E4" stroke-width="2.913" stroke-linecap="round" stroke-linejoin="round"/>
<path d="M308.271 433.959C308.514 433.939 308.771 433.91 309.029 433.881H309.068C310.417 433.726 311.868 433.481 313.263 433.405C315.38 433.289 317.4 433.522 318.788 434.92C324.236 440.397 317.672 441.281 312.34 441.291" stroke="#5E71E4" stroke-width="2.913" stroke-linecap="round" stroke-linejoin="round"/>
<path d="M297.4 426.423C298.974 419.829 308.015 405.553 313.676 409.283C317.804 412.002 308.86 422.024 305.888 425.966C314.22 422.066 328.962 420.557 337.944 422.529C339.955 422.975 342.402 424.209 342.13 426.248C341.897 427.948 339.935 428.724 338.284 429.148C330.029 431.033 321.674 432.453 313.259 433.401C311.773 433.586 310.375 433.741 309.064 433.877" stroke="#5E71E4" stroke-width="2.913" stroke-linecap="round" stroke-linejoin="round"/>
<path d="M257.725 481.271V481.31C257.584 488.854 255.777 496.274 252.432 503.039C249.087 509.803 244.288 515.744 238.378 520.436C232.468 525.128 225.594 528.456 218.248 530.18C210.901 531.904 203.265 531.983 195.884 530.41C188.115 528.759 180.074 525.302 172.568 527.875C169.988 528.794 167.65 530.288 165.731 532.245C162.555 535.333 160.131 539.431 158.049 543.413C152.563 553.891 147.882 565.923 151.087 577.305C151.776 579.726 152.799 582.04 154.126 584.18C158.953 592.008 167.547 597.553 176.559 600.068C188.028 603.273 200.186 602.389 212.034 601.233C224.464 600.019 236.953 598.495 248.82 594.633C260.687 590.771 272 584.365 279.983 574.761C290.529 562.061 294.283 545.074 295.841 528.633" stroke="#5E71E4" stroke-width="2.913" stroke-linecap="round" stroke-linejoin="round"/>
<path d="M295.987 526.456C296.064 527.165 296.142 527.884 296.22 528.593C298.113 546.209 300.01 563.822 301.91 581.431C304.572 606.107 307.229 630.783 309.883 655.459C310.592 662.034 311.699 669.346 316.943 673.376C320.243 675.921 324.363 676.532 328.597 676.309C331.443 676.122 334.27 675.721 337.055 675.109C343.707 673.749 350.427 672.332 356.584 669.447C361.292 667.348 365.438 664.167 368.684 660.163C369.71 658.857 370.592 657.444 371.316 655.949C375.375 647.549 373.851 637.643 372.238 628.457C366.305 594.584 360.595 561.323 354.817 527.868C351.767 510.282 348.708 492.636 345.591 474.816" stroke="#5E71E4" stroke-width="2.913" stroke-linecap="round" stroke-linejoin="round"/>
<path d="M165.7 532.216C158.7 530.643 151.133 529.108 144.559 531.973C138.654 534.547 134.731 540.173 131.245 545.588C126.923 552.279 122.763 559.071 118.766 565.962C115.299 571.954 111.842 578.48 112.434 585.385C112.929 591.143 116.183 596.251 119.348 601.085C121.407 604.232 124.088 607.738 127.848 607.747C130.858 607.747 133.315 605.465 135.422 603.319C141.647 597.007 147.83 590.656 153.971 584.266" stroke="#5E71E4" stroke-width="2.913" stroke-linecap="round" stroke-linejoin="round"/>
<path d="M328.606 676.008C328.606 676.108 328.597 676.208 328.597 676.308C328.459 679.432 328.559 682.562 328.897 685.67C329.206 689.594 330.684 693.335 333.14 696.41C337.384 701.324 344.269 702.829 350.65 704.043C359.992 705.82 369.382 707.607 378.88 707.86C385.989 708.034 393.243 707.316 399.759 704.5C406.275 701.684 412.024 696.536 414.432 689.855C414.889 688.595 415.211 687.29 415.394 685.961C416.171 680.212 414.403 674.074 410.062 670.277C399.225 660.79 380.142 669.433 368.955 660.362" stroke="#5E71E4" stroke-width="2.913" stroke-linecap="round" stroke-linejoin="round"/>
<path d="M721 692.654C714.024 699.316 704.746 703.028 695.1 703.016H495.619C490.69 703.018 485.809 702.049 481.255 700.165C476.7 698.28 472.562 695.516 469.076 692.031C465.591 688.547 462.826 684.409 460.94 679.855C459.054 675.301 458.084 670.421 458.085 665.492V285.038C458.089 277.587 460.309 270.306 464.463 264.12C468.617 257.935 474.516 253.124 481.411 250.301C484.852 248.887 488.486 248 492.191 247.67C493.317 247.563 494.463 247.514 495.619 247.514H695.1C705.053 247.513 714.599 251.466 721.638 258.503C728.676 265.54 732.632 275.085 732.634 285.038V665.492C732.639 670.572 731.611 675.6 729.611 680.269C727.611 684.939 724.681 689.153 721 692.654V692.654Z" stroke="#5E71E4" stroke-width="2.913" stroke-linecap="round" stroke-linejoin="round"/>
<path d="M457.91 296.177H458.085H732.629H732.794" stroke="#5E71E4" stroke-width="2.913" stroke-linecap="round" stroke-linejoin="round"/>
<path d="M457.745 643.039H458.085H732.629H732.969" stroke="#5E71E4" stroke-width="2.913" stroke-linecap="round" stroke-linejoin="round"/>
<path d="M612.153 672.173C612.155 675.496 611.171 678.745 609.326 681.509C607.481 684.273 604.858 686.428 601.789 687.701C598.719 688.974 595.341 689.308 592.081 688.661C588.822 688.014 585.827 686.415 583.477 684.066C581.126 681.717 579.525 678.723 578.876 675.464C578.227 672.205 578.559 668.826 579.831 665.756C581.102 662.686 583.255 660.061 586.018 658.215C588.781 656.368 592.03 655.383 595.353 655.383C599.807 655.383 604.078 657.151 607.229 660.3C610.379 663.448 612.15 667.719 612.153 672.173V672.173Z" stroke="#5E71E4" stroke-width="2.913" stroke-linecap="round" stroke-linejoin="round"/>
<path d="M602.781 262.644C602.782 264.112 602.347 265.548 601.532 266.769C600.717 267.99 599.558 268.943 598.202 269.506C596.846 270.068 595.354 270.216 593.913 269.931C592.473 269.645 591.15 268.939 590.111 267.902C589.072 266.864 588.364 265.542 588.076 264.102C587.789 262.662 587.935 261.169 588.496 259.812C589.057 258.455 590.008 257.295 591.228 256.479C592.448 255.662 593.883 255.226 595.352 255.225C596.327 255.224 597.292 255.415 598.193 255.788C599.094 256.16 599.913 256.706 600.603 257.395C601.293 258.084 601.84 258.902 602.214 259.803C602.588 260.703 602.78 261.669 602.781 262.644Z" stroke="#5E71E4" stroke-width="2.913" stroke-linecap="round" stroke-linejoin="round"/>
<path d="M627.574 284.872H563.14C562.14 284.872 561.18 284.475 560.472 283.767C559.765 283.06 559.367 282.1 559.367 281.099C559.367 280.099 559.765 279.139 560.472 278.431C561.18 277.724 562.14 277.326 563.14 277.326H627.574C628.32 277.326 629.049 277.548 629.669 277.963C630.289 278.378 630.772 278.967 631.057 279.656C631.342 280.346 631.416 281.104 631.269 281.835C631.123 282.567 630.763 283.238 630.235 283.765C629.888 284.117 629.473 284.397 629.016 284.587C628.559 284.777 628.069 284.874 627.574 284.872V284.872Z" stroke="#5E71E4" stroke-width="2.913" stroke-linecap="round" stroke-linejoin="round"/>
<path d="M548.234 284.755C550.46 284.755 552.264 282.951 552.264 280.725C552.264 278.5 550.46 276.695 548.234 276.695C546.008 276.695 544.204 278.5 544.204 280.725C544.204 282.951 546.008 284.755 548.234 284.755Z" stroke="#5E71E4" stroke-width="2.913" stroke-linecap="round" stroke-linejoin="round"/>
<path d="M525.15 616.537H512.128C511.631 616.537 511.14 616.44 510.682 616.25C510.223 616.06 509.806 615.782 509.456 615.431C509.105 615.08 508.826 614.664 508.637 614.205C508.447 613.747 508.349 613.255 508.35 612.759V587.859C508.349 587.363 508.447 586.871 508.637 586.413C508.826 585.954 509.105 585.538 509.456 585.187C509.806 584.836 510.223 584.558 510.682 584.368C511.14 584.178 511.631 584.081 512.128 584.081H525.15C525.645 584.082 526.136 584.18 526.593 584.37C527.051 584.56 527.466 584.839 527.816 585.19C528.166 585.541 528.443 585.957 528.632 586.415C528.821 586.873 528.918 587.364 528.918 587.859V612.759C528.918 613.255 528.821 613.745 528.632 614.203C528.443 614.661 528.166 615.078 527.816 615.428C527.466 615.779 527.051 616.058 526.593 616.248C526.136 616.438 525.645 616.536 525.15 616.537V616.537Z" stroke="#5E71E4" stroke-width="2.913" stroke-linecap="round" stroke-linejoin="round"/>
<path d="M562.053 616.538H549.03C548.534 616.538 548.042 616.441 547.584 616.251C547.125 616.061 546.709 615.783 546.358 615.432C546.007 615.081 545.729 614.664 545.539 614.206C545.349 613.748 545.252 613.256 545.252 612.76V572.323C545.252 571.827 545.349 571.335 545.539 570.877C545.729 570.418 546.007 570.002 546.358 569.651C546.709 569.3 547.125 569.022 547.584 568.832C548.042 568.642 548.534 568.545 549.03 568.545H562.053C563.053 568.547 564.013 568.945 564.719 569.654C565.426 570.362 565.822 571.322 565.821 572.323V612.76C565.822 613.76 565.426 614.721 564.719 615.429C564.013 616.137 563.053 616.536 562.053 616.538V616.538Z" stroke="#5E71E4" stroke-width="2.913" stroke-linecap="round" stroke-linejoin="round"/>
<path d="M601.868 616.538H588.846C588.35 616.538 587.859 616.441 587.4 616.251C586.942 616.061 586.525 615.783 586.174 615.432C585.823 615.081 585.545 614.664 585.355 614.206C585.166 613.747 585.068 613.256 585.068 612.76V550.153C585.069 549.657 585.167 549.167 585.357 548.709C585.548 548.252 585.826 547.836 586.177 547.486C586.528 547.136 586.944 546.859 587.402 546.67C587.86 546.481 588.351 546.384 588.846 546.385H601.868C602.867 546.386 603.825 546.783 604.532 547.489C605.238 548.196 605.636 549.154 605.636 550.153V612.76C605.637 613.255 605.54 613.746 605.351 614.204C605.162 614.662 604.885 615.078 604.535 615.429C604.185 615.78 603.769 616.058 603.312 616.249C602.854 616.439 602.364 616.537 601.868 616.538V616.538Z" stroke="#5E71E4" stroke-width="2.913" stroke-linecap="round" stroke-linejoin="round"/>
<path d="M639.742 616.538H626.719C626.223 616.538 625.732 616.44 625.273 616.251C624.815 616.061 624.398 615.783 624.048 615.432C623.697 615.081 623.419 614.664 623.229 614.206C623.039 613.747 622.942 613.256 622.942 612.76V508.113C622.942 507.617 623.04 507.126 623.23 506.669C623.42 506.211 623.698 505.795 624.049 505.445C624.4 505.095 624.816 504.817 625.274 504.629C625.733 504.44 626.224 504.343 626.719 504.345H639.742C640.237 504.344 640.727 504.442 641.185 504.631C641.642 504.82 642.058 505.098 642.408 505.447C642.758 505.797 643.035 506.213 643.224 506.67C643.414 507.128 643.511 507.618 643.51 508.113V612.76C643.511 613.76 643.115 614.72 642.409 615.429C641.702 616.137 640.743 616.536 639.742 616.538V616.538Z" stroke="#5E71E4" stroke-width="2.913" stroke-linecap="round" stroke-linejoin="round"/>
<path d="M678.587 616.537H665.564C665.068 616.538 664.577 616.44 664.118 616.25C663.66 616.061 663.243 615.782 662.892 615.431C662.541 615.081 662.263 614.664 662.073 614.205C661.883 613.747 661.786 613.256 661.786 612.759V466.752C661.788 465.752 662.187 464.793 662.895 464.086C663.603 463.38 664.564 462.983 665.564 462.984H678.587C679.586 462.985 680.544 463.383 681.25 464.089C681.956 464.796 682.353 465.753 682.354 466.752V612.759C682.355 613.76 681.959 614.72 681.253 615.428C680.547 616.137 679.588 616.536 678.587 616.537V616.537Z" stroke="#5E71E4" stroke-width="2.913" stroke-linecap="round" stroke-linejoin="round"/>
<path d="M159.632 406.038C158.943 414.038 156.032 421.712 154.301 429.588C152.446 438.056 152.174 447.573 157.137 454.681C162.1 461.789 173.801 464.373 179.443 457.808" stroke="#5E71E4" stroke-width="2.913" stroke-linecap="round" stroke-linejoin="round"/>
<path d="M159.632 406.039C157.21 407.177 154.547 407.711 151.873 407.593C146.804 407.369 141.686 404.524 139.686 399.863C137.686 395.202 139.637 388.938 144.328 386.995C148.581 385.238 153.728 387.395 156.466 391.095C159.204 394.795 159.933 399.621 159.749 404.224C159.72 404.835 159.681 405.437 159.632 406.039Z" stroke="#5E71E4" stroke-width="2.913" stroke-linecap="round" stroke-linejoin="round"/>
<path d="M195.029 311.16C200.516 300.653 195.311 286.338 184.852 280.735C174.393 275.132 160.506 277.997 152.145 286.416C143.784 294.835 140.88 307.839 143.492 319.405C146.114 331.068 153.602 340.915 160.341 350.805C167.08 360.695 173.432 371.674 173.257 383.629C173.131 392.815 167.605 402.371 159.632 406.042" stroke="#5E71E4" stroke-width="2.913" stroke-linecap="round" stroke-linejoin="round"/>
<path d="M658.9 443.101L670.534 454.443C672.36 442.411 674.189 430.376 676.021 418.337C663.754 419.979 651.492 421.617 639.235 423.251L648.616 433.827C607.161 479.947 559.174 519.746 506.184 551.959C495.221 558.611 495.706 572.77 510.02 566.108C523.606 559.786 536.58 548.744 548.7 540.008C573.962 521.798 598.081 502.054 620.922 480.887C634.022 468.746 646.681 456.15 658.9 443.101Z" stroke="#5E71E4" stroke-width="2.913" stroke-linecap="round" stroke-linejoin="round"/>
<path d="M586.117 374.167C592.589 382.638 596.123 392.988 596.184 403.648C596.245 414.308 592.83 424.697 586.456 433.242C580.082 441.787 571.096 448.021 560.861 451C550.625 453.979 539.697 453.541 529.733 449.752C519.769 445.963 511.312 439.029 505.643 430.001C499.973 420.973 497.401 410.344 498.316 399.723C499.23 389.102 503.582 379.068 510.711 371.143C517.84 363.217 527.358 357.831 537.823 355.801" stroke="#5E71E4" stroke-width="2.913" stroke-linecap="round" stroke-linejoin="round"/>
<path d="M537.823 355.8C546.779 354.061 556.043 354.856 564.572 358.096C573.101 361.335 580.557 366.891 586.1 374.137" stroke="#5E71E4" stroke-width="2.913" stroke-linecap="round" stroke-linejoin="round"/>
<path d="M585.311 373.292C585.573 373.564 585.835 373.846 586.098 374.137C586.107 374.147 586.117 374.156 586.117 374.166C598.994 388.422 603.898 413.933 596.817 429.266C593.199 437.145 587.565 443.929 580.485 448.933C573.406 453.937 565.13 456.984 556.496 457.766C545.134 458.699 526.586 453.843 511.961 438.412" stroke="#5E71E4" stroke-width="2.913" stroke-linecap="round" stroke-linejoin="round"/>
<path d="M445.509 251.059C459.486 245.389 474.028 241.229 488.889 238.648C490.634 238.233 492.445 238.18 494.211 238.493C495.095 238.702 495.913 239.129 496.59 239.736C497.264 240.316 497.714 241.113 497.862 241.989C497.921 242.885 497.724 243.78 497.292 244.568C496.86 245.356 496.212 246.004 495.424 246.436C494.419 247.017 493.327 247.434 492.191 247.67C491.579 247.815 490.957 247.941 490.336 248.07C487.336 248.682 484.354 249.42 481.411 250.303C474.143 252.451 467.124 255.368 460.474 259.003" stroke="#5E71E4" stroke-width="2.913" stroke-linecap="round" stroke-linejoin="round"/>
<path d="M497.027 239.668C500.008 239.168 503.174 238.687 505.981 239.823C508.788 240.959 510.914 244.358 509.564 247.077V245.795" stroke="#5E71E4" stroke-width="2.913" stroke-linecap="round" stroke-linejoin="round"/>
<path d="M459.6 273.568C460.154 270.003 460.405 266.397 460.348 262.789C460.338 261.536 460.28 260.274 460.183 259.021C460.184 258.956 460.181 258.891 460.173 258.827" stroke="#5E71E4" stroke-width="2.913" stroke-linecap="round" stroke-linejoin="round"/>
<path d="M460.736 262.789C462.957 261.616 465.289 260.669 467.699 259.963C467.709 259.963 467.719 259.953 467.728 259.953" stroke="#5E71E4" stroke-width="2.913" stroke-linecap="round" stroke-linejoin="round"/>
<path d="M446.568 269.324C446.568 275.219 446.568 271.412 447.034 277.297C447.209 279.511 447.519 281.871 448.908 283.58C448.974 283.669 449.046 283.754 449.122 283.833C451.278 286.183 454.89 286.233 458.085 286.105H458.143" stroke="#5E71E4" stroke-width="2.913" stroke-linecap="round" stroke-linejoin="round"/>
<path d="M722.141 693.08C727.045 693.304 731.936 693.524 736.815 693.741C768.259 695.129 799.199 696.441 830.415 697.712C841.777 698.179 853.187 698.638 864.646 699.091" stroke="#5E71E4" stroke-width="2.913" stroke-linecap="round" stroke-linejoin="round"/>
<path d="M416.026 686.06C431.807 686.108 447.591 686.212 463.378 686.371" stroke="#5E71E4" stroke-width="2.913" stroke-linecap="round" stroke-linejoin="round"/>
<path d="M23.5 690.118C86.924 688.467 150.027 687.098 213.3 686.341C251.62 685.874 290.041 685.664 328.562 685.709" stroke="#5E71E4" stroke-width="2.913" stroke-linecap="round" stroke-linejoin="round"/>
<path d="M828.682 698.937C829.255 698.537 829.838 698.131 830.411 697.713C853.533 681.069 874.781 653.557 864.963 623.53C862.608 616.143 858.071 609.642 851.95 604.885" stroke="#5E71E4" stroke-width="2.913" stroke-linecap="round" stroke-linejoin="round"/>
<path d="M300.949 581.538C283.449 591.238 273.301 611.944 275.982 631.738C263.648 624.396 247.693 624.038 234.758 630.048C221.803 636.079 213.112 648.558 210.868 662.548C209.565 670.292 210.401 678.245 213.286 685.548" stroke="#5E71E4" stroke-width="2.913" stroke-linecap="round" stroke-linejoin="round"/>
<path d="M458.153 482.291C458.134 482.262 458.105 482.223 458.085 482.191C449.685 470.538 434.167 466.42 420.357 469.654C406.004 473.014 396.186 485.629 394.38 499.991C393.294 507.887 394.916 515.918 398.98 522.774C385.035 516.297 367.662 518.462 355.48 527.746" stroke="#5E71E4" stroke-width="2.913" stroke-linecap="round" stroke-linejoin="round"/>
<path d="M736.844 693.052C745.885 689.42 755.596 685.536 764.336 680.68L778.903 671.94C820.661 646.191 854.356 609.243 876.158 565.296C897.961 521.349 906.995 472.166 902.234 423.339C869.216 421.396 837.17 434.021 809.25 449.811" stroke="#5E71E4" stroke-width="2.913" stroke-linecap="round" stroke-linejoin="round"/>
<path d="M732.6 617.246L732.63 617.217C776.796 572.885 803.443 512.035 807.92 449.717C809.505 428.209 808.344 406.586 804.464 385.371C774.738 388.799 747.158 407.279 732.63 433.431L732.396 433.839" stroke="#5E71E4" stroke-width="2.913" stroke-linecap="round" stroke-linejoin="round"/>
<path d="M539.3 363.406C547.312 361.853 555.605 362.711 563.13 365.871C570.654 369.031 577.073 374.352 581.574 381.16C586.075 387.967 588.456 395.957 588.416 404.118C588.376 412.279 585.917 420.246 581.349 427.009C576.782 433.773 570.312 439.03 562.756 442.116C555.201 445.202 546.9 445.979 538.904 444.348C530.907 442.716 523.574 438.75 517.832 432.951C512.089 427.152 508.195 419.78 506.642 411.768C505.61 406.448 505.636 400.977 506.719 395.667C507.801 390.357 509.919 385.313 512.952 380.822C515.985 376.331 519.873 372.481 524.394 369.493C528.914 366.505 533.98 364.436 539.3 363.406V363.406Z" stroke="#5E71E4" stroke-width="2.913" stroke-linecap="round" stroke-linejoin="round"/>
<path d="M316.481 341.651V327.713" stroke="#5E71E4" stroke-width="2.913" stroke-linecap="round" stroke-linejoin="round"/>
<path d="M304.635 341.88L304.791 328.172" stroke="#5E71E4" stroke-width="2.913" stroke-linecap="round" stroke-linejoin="round"/>
<path d="M292.26 342.336V330" stroke="#5E71E4" stroke-width="2.913" stroke-linecap="round" stroke-linejoin="round"/>
<path d="M283.305 341.884C283.423 338.075 283.541 334.265 283.661 330.456" stroke="#5E71E4" stroke-width="2.913" stroke-linecap="round" stroke-linejoin="round"/>
<path d="M415.325 306.217C415.929 305.696 416.396 305.036 416.688 304.294C416.979 303.552 417.086 302.75 416.998 301.958C416.91 301.166 416.631 300.407 416.184 299.746C415.737 299.086 415.136 298.545 414.433 298.169C413.73 297.793 412.946 297.594 412.149 297.589C411.351 297.584 410.565 297.773 409.857 298.14C409.15 298.507 408.542 299.041 408.087 299.696C407.632 300.35 407.343 301.106 407.245 301.897C407.02 303.713 407.81 305.476 408.374 307.216C408.938 308.956 409.244 311.005 408.192 312.501C407.14 313.997 404.274 314.011 403.838 312.235" stroke="#5E71E4" stroke-width="2.913" stroke-linecap="round" stroke-linejoin="round"/>
<path d="M381.381 313.538C378.358 313.576 376.53 317.246 377.038 320.225C377.546 323.204 379.545 325.669 381.107 328.258C382.669 330.847 383.84 334.094 382.566 336.834C381.016 340.169 375.731 340.856 373.381 338.027" stroke="#5E71E4" stroke-width="2.913" stroke-linecap="round" stroke-linejoin="round"/>
<path d="M344.1 365.113C342.9 361.024 346.467 356.288 350.728 356.313C352.211 356.322 353.655 356.813 355.136 356.877C356.617 356.941 358.3 356.437 358.93 355.094" stroke="#5E71E4" stroke-width="2.913" stroke-linecap="round" stroke-linejoin="round"/>
<path d="M329.5 353.931C328.294 355.771 326.651 357.283 324.717 358.331C323.745 358.84 322.652 359.075 321.556 359.012C320.461 358.948 319.403 358.588 318.495 357.97C316.629 356.511 316.095 353.838 314.301 352.287C313.638 351.714 312.834 351.326 311.972 351.163C311.11 351 310.221 351.068 309.394 351.359C308.566 351.651 307.831 352.157 307.262 352.824C306.693 353.492 306.311 354.298 306.154 355.161" stroke="#5E71E4" stroke-width="2.913" stroke-linecap="round" stroke-linejoin="round"/>
<path d="M322.394 381.658C321.479 382.752 320.829 384.042 320.496 385.428C320.162 386.814 320.154 388.259 320.472 389.649C320.789 391.039 321.424 392.336 322.327 393.44C323.23 394.543 324.375 395.423 325.675 396.01C327.851 396.994 330.393 397.131 332.381 398.455C333.166 399.046 333.815 399.799 334.282 400.663C334.75 401.528 335.025 402.483 335.088 403.464C335.152 404.445 335.003 405.427 334.652 406.345C334.301 407.263 333.755 408.094 333.053 408.781" stroke="#5E71E4" stroke-width="2.913" stroke-linecap="round" stroke-linejoin="round"/>
<path d="M265.3 414.117C264.832 411.992 264.711 409.805 264.942 407.64C265.067 406.558 265.449 405.521 266.057 404.617C266.664 403.712 267.479 402.966 268.434 402.44C270.54 401.451 273.023 402.023 275.241 402.725C277.459 403.427 279.794 404.251 282.058 403.713C284.322 403.175 286.248 400.58 285.158 398.523" stroke="#5E71E4" stroke-width="2.913" stroke-linecap="round" stroke-linejoin="round"/>
<path d="M278.948 374.869C279.44 373.512 279.541 372.044 279.239 370.632C278.938 369.22 278.245 367.921 277.241 366.883C276.237 365.846 274.962 365.111 273.561 364.763C272.159 364.415 270.689 364.468 269.316 364.915C267.748 365.427 266.383 366.426 264.845 367.021C263.307 367.616 261.379 367.721 260.178 366.587" stroke="#5E71E4" stroke-width="2.913" stroke-linecap="round" stroke-linejoin="round"/>
<path d="M228.284 372.236C226.816 372.344 225.396 372.804 224.145 373.578C222.893 374.351 221.846 375.415 221.093 376.679C220.34 377.944 219.903 379.371 219.819 380.84C219.735 382.309 220.006 383.777 220.61 385.118C221.476 387.044 222.992 388.636 223.761 390.602C224.53 392.568 224.195 395.286 222.261 396.124" stroke="#5E71E4" stroke-width="2.913" stroke-linecap="round" stroke-linejoin="round"/>
<path d="M254.111 449.155C254.351 448.297 254.41 447.399 254.284 446.517C254.158 445.635 253.85 444.789 253.38 444.033C252.91 443.276 252.288 442.625 251.553 442.122C250.818 441.619 249.986 441.274 249.111 441.109C246.681 440.78 244.306 441.909 241.867 442.17C239.428 442.431 236.367 441.157 236.349 438.705" stroke="#5E71E4" stroke-width="2.913" stroke-linecap="round" stroke-linejoin="round"/>
<path d="M207.5 420.253C206.337 421.362 205.468 422.741 204.97 424.269C204.472 425.796 204.361 427.423 204.647 429.004C204.933 430.584 205.606 432.07 206.607 433.326C207.609 434.582 208.906 435.57 210.383 436.202" stroke="#5E71E4" stroke-width="2.913" stroke-linecap="round" stroke-linejoin="round"/>
<path d="M338.612 447.816C339.778 448.687 340.672 449.872 341.19 451.232C341.708 452.592 341.829 454.071 341.538 455.497C341.247 456.923 340.556 458.237 339.546 459.285C338.536 460.333 337.249 461.072 335.835 461.416C334.14 461.828 332.324 461.659 330.679 462.238C329.034 462.817 327.579 464.647 328.309 466.23" stroke="#5E71E4" stroke-width="2.913" stroke-linecap="round" stroke-linejoin="round"/>
<path d="M287.507 463.872C286.653 466.603 284.813 468.917 282.345 470.366C279.877 471.814 276.959 472.292 274.158 471.707C272.617 471.328 271.158 470.618 269.589 470.381C268.813 470.205 268.004 470.247 267.25 470.502C266.496 470.757 265.828 471.216 265.318 471.827" stroke="#5E71E4" stroke-width="2.913" stroke-linecap="round" stroke-linejoin="round"/>
<path d="M428.751 259.23C425.264 276.083 424.976 293.441 427.9 310.4" stroke="#5E71E4" stroke-width="2.913" stroke-linecap="round" stroke-linejoin="round"/>
<path d="M276.6 422.301C275.476 434.771 275.551 447.321 276.823 459.777" stroke="#5E71E4" stroke-width="2.913" stroke-linecap="round" stroke-linejoin="round"/>
<path d="M347.236 668.4C347.278 673.009 350.117 677.262 353.836 679.983C357.555 682.704 362.075 684.097 366.574 685.097C376.398 687.275 386.518 687.789 396.512 686.618C403.46 685.802 411.265 683.425 414.082 677.018" stroke="#5E71E4" stroke-width="2.913" stroke-linecap="round" stroke-linejoin="round"/>
<path d="M154.881 551.318C142.969 556.101 133.209 565.064 127.432 576.526C124.908 581.584 123.206 587.477 124.909 592.867C126.612 598.257 132.816 602.437 138.039 600.275" stroke="#5E71E4" stroke-width="2.913" stroke-linecap="round" stroke-linejoin="round"/>
<path d="M732.432 506.679C749.558 470.649 769.132 435.834 791.015 402.479" stroke="#5E71E4" stroke-width="2.913" stroke-linecap="round" stroke-linejoin="round"/>
<path d="M732.752 537.21L772.524 529.51" stroke="#5E71E4" stroke-width="2.913" stroke-linecap="round" stroke-linejoin="round"/>
<path d="M740.547 489.773L788.586 482.358" stroke="#5E71E4" stroke-width="2.913" stroke-linecap="round" stroke-linejoin="round"/>
<path d="M765.634 443.02L797.686 435.514" stroke="#5E71E4" stroke-width="2.913" stroke-linecap="round" stroke-linejoin="round"/>
<path d="M741 488.574C741.238 473.342 741.476 458.109 741.715 442.874" stroke="#5E71E4" stroke-width="2.913" stroke-linecap="round" stroke-linejoin="round"/>
<path d="M766.071 441.509C765.624 432.521 765.177 423.533 764.729 414.545" stroke="#5E71E4" stroke-width="2.913" stroke-linecap="round" stroke-linejoin="round"/>
<path d="M735.034 637.316C790.455 572.901 841.839 505.121 888.893 434.363" stroke="url(#paint9_linear_38_4065)" stroke-width="2.913" stroke-linecap="round" stroke-linejoin="round"/>
<path d="M852.991 486.309C853.591 472.282 854.191 458.254 854.791 444.225" stroke="url(#paint10_linear_38_4065)" stroke-width="2.913" stroke-linecap="round" stroke-linejoin="round"/>
<path d="M853.468 485.931L892.732 481.484" stroke="url(#paint11_linear_38_4065)" stroke-width="2.913" stroke-linecap="round" stroke-linejoin="round"/>
<path d="M826.676 522.854C827.918 506.282 828.349 489.676 827.967 473.036" stroke="url(#paint12_linear_38_4065)" stroke-width="2.913" stroke-linecap="round" stroke-linejoin="round"/>
<path d="M826.966 522.819C842.622 524.11 858.35 524.297 874.033 523.38" stroke="url(#paint13_linear_38_4065)" stroke-width="2.913" stroke-linecap="round" stroke-linejoin="round"/>
<path d="M802.224 554.846L795 507.301" stroke="url(#paint14_linear_38_4065)" stroke-width="2.913" stroke-linecap="round" stroke-linejoin="round"/>
<path d="M802.269 554.35L853.919 556.388" stroke="url(#paint15_linear_38_4065)" stroke-width="2.913" stroke-linecap="round" stroke-linejoin="round"/>
<path d="M775.832 587.737C774.734 575.66 773.174 563.638 771.152 551.669L772.552 552.096" stroke="url(#paint16_linear_38_4065)" stroke-width="2.913" stroke-linecap="round" stroke-linejoin="round"/>
<path d="M775.753 587.884L834.703 591.132" stroke="url(#paint17_linear_38_4065)" stroke-width="2.913" stroke-linecap="round" stroke-linejoin="round"/>
<path d="M751.987 616.99C751.044 604.218 750.755 591.406 751.121 578.604" stroke="url(#paint18_linear_38_4065)" stroke-width="2.913" stroke-linecap="round" stroke-linejoin="round"/>
<path d="M752.773 617.151L803.963 624.873" stroke="url(#paint19_linear_38_4065)" stroke-width="2.913" stroke-linecap="round" stroke-linejoin="round"/>
<path d="M371.448 224.996L371.926 233.861L379.501 238.494L371.216 241.688L369.15 250.324L363.553 243.432L354.701 244.136L359.527 236.682L356.122 228.482L364.702 230.767L371.448 224.996Z" fill="url(#paint20_linear_38_4065)" stroke="#5E71E4" stroke-width="2.913" stroke-linecap="round" stroke-linejoin="round"/>
<path d="M275.186 199.479L279.972 203.775L286.225 202.268L283.618 208.148L286.982 213.628L280.586 212.966L276.413 217.859L275.066 211.57L269.123 209.114L274.687 205.89L275.186 199.479Z" fill="#5E71E4"/>
<path d="M297.785 177.54L297.973 181.016L300.943 182.833L297.695 184.086L296.884 187.472L294.689 184.769L291.218 185.045L293.11 182.122L291.775 178.907L295.14 179.803L297.785 177.54Z" stroke="url(#paint21_linear_38_4065)" stroke-width="2.913" stroke-linecap="round" stroke-linejoin="round"/>
<path d="M644.907 407.031L636.841 403.32L629.211 407.86L630.248 399.041L623.573 393.187L632.28 391.45L635.785 383.292L640.128 391.035L648.97 391.848L642.948 398.372L644.907 407.031Z" stroke="#5E71E4" stroke-width="2.913" stroke-linecap="round" stroke-linejoin="round"/>
<path d="M697.976 350.918L691.943 353.147L690.36 359.381L686.376 354.332L679.958 354.753L683.528 349.404L681.144 343.43L687.335 345.171L692.28 341.059L692.537 347.486L697.976 350.918Z" fill="#5E71E4"/>
<path d="M706.844 381.138L703.682 379.682L700.688 381.463L701.095 378.005L698.479 375.709L701.893 375.027L703.266 371.829L704.97 374.865L708.438 375.184L706.076 377.742L706.844 381.138Z" stroke="url(#paint22_linear_38_4065)" stroke-width="2.913" stroke-linecap="round" stroke-linejoin="round"/>
<path d="M238.792 266.701L234.336 261.56" stroke="#5E71E4" stroke-width="2.913" stroke-linecap="round" stroke-linejoin="round"/>
<path d="M232.966 267.047L238.521 260.942" stroke="#5E71E4" stroke-width="2.913" stroke-linecap="round" stroke-linejoin="round"/>
<path d="M349.5 211.179C348.579 208.444 347.187 205.892 345.387 203.638" stroke="#5E71E4" stroke-width="2.913" stroke-linecap="round" stroke-linejoin="round"/>
<path d="M343.269 210.414L350.841 204.628" stroke="#5E71E4" stroke-width="2.913" stroke-linecap="round" stroke-linejoin="round"/>
<path d="M361.511 301.645L355.681 296.851" stroke="#5E71E4" stroke-width="2.913" stroke-linecap="round" stroke-linejoin="round"/>
<path d="M360.916 295.9L355.692 304.073" stroke="#5E71E4" stroke-width="2.913" stroke-linecap="round" stroke-linejoin="round"/>
<path d="M397.891 399.713C399.477 395.306 402.009 391.301 405.309 387.979" stroke="#5E71E4" stroke-width="2.913" stroke-linecap="round" stroke-linejoin="round"/>
<path d="M405.256 398.443L394.393 388.729" stroke="#5E71E4" stroke-width="2.913" stroke-linecap="round" stroke-linejoin="round"/>
<path d="M186.694 499.085C188.522 495.885 190.35 492.685 192.178 489.485" stroke="#5E71E4" stroke-width="2.913" stroke-linecap="round" stroke-linejoin="round"/>
<path d="M193.55 497.714C190.578 495.429 187.608 493.144 184.639 490.859" stroke="#5E71E4" stroke-width="2.913" stroke-linecap="round" stroke-linejoin="round"/>
<path d="M782.388 363.359C780.648 359.62 778.067 356.334 774.847 353.759" stroke="#5E71E4" stroke-width="2.913" stroke-linecap="round" stroke-linejoin="round"/>
<path d="M783.733 353.024C779.612 355.098 776.088 358.187 773.492 362" stroke="#5E71E4" stroke-width="2.913" stroke-linecap="round" stroke-linejoin="round"/>
<path d="M857.428 402.432C858.143 398.818 858.857 395.204 859.571 391.589" stroke="#5E71E4" stroke-width="2.913" stroke-linecap="round" stroke-linejoin="round"/>
<path d="M851.352 397.089L866.289 395.389" stroke="#5E71E4" stroke-width="2.913" stroke-linecap="round" stroke-linejoin="round"/>
<path d="M721.754 214.264C735.525 212.477 749.518 213.624 762.814 217.629C776.11 221.635 788.408 228.409 798.9 237.506C803.237 241.316 807.4 245.811 808.694 251.438C810.075 257.456 807.821 263.938 803.75 268.578C799.679 273.218 793.991 276.198 788.1 278.047C780.772 280.347 772.284 280.887 765.854 276.688C759.424 272.489 756.793 262.317 762.254 256.917C767.397 251.831 775.962 253.436 782.712 256.034C790.391 258.989 797.863 262.862 803.754 268.605C809.645 274.348 813.839 282.157 813.967 290.383C814.194 305.063 801.886 319.064 806.227 333.089C808.748 341.234 816.596 346.878 824.875 348.91C833.154 350.942 841.862 349.928 850.258 348.447" stroke="#5E71E4" stroke-width="2.913" stroke-linecap="round" stroke-linejoin="round"/>
<path d="M82.9854 712.839C79.9317 698.251 75.0449 684.108 68.4414 670.746" stroke="#5E71E4" stroke-width="2.913" stroke-linecap="round" stroke-linejoin="round"/>
<path d="M83.3232 713.337C87.1102 698.397 94.3395 684.549 104.433 672.9" stroke="#5E71E4" stroke-width="2.913" stroke-linecap="round" stroke-linejoin="round"/>
<path d="M82.8291 712.226C85.3188 693.819 85.5354 675.176 83.4741 656.717" stroke="#5E71E4" stroke-width="2.913" stroke-linecap="round" stroke-linejoin="round"/>
<path d="M256.5 699.478C258.026 687.549 262.713 676.245 270.076 666.736" stroke="#5E71E4" stroke-width="2.913" stroke-linecap="round" stroke-linejoin="round"/>
<path d="M256.293 698.891L254.393 656.727" stroke="#5E71E4" stroke-width="2.913" stroke-linecap="round" stroke-linejoin="round"/>
<path d="M255.952 699.36C253.643 686.938 246.666 675.873 236.452 668.437" stroke="#5E71E4" stroke-width="2.913" stroke-linecap="round" stroke-linejoin="round"/>
<path d="M534.534 720.493C536.509 705.784 541.747 691.703 549.864 679.278" stroke="#5E71E4" stroke-width="2.913" stroke-linecap="round" stroke-linejoin="round"/>
<path d="M534.373 720.462C533.617 704.356 532.861 688.25 532.104 672.145" stroke="#5E71E4" stroke-width="2.913" stroke-linecap="round" stroke-linejoin="round"/>
<path d="M534.48 720.901C532.024 706.1 524.601 692.578 513.432 682.562" stroke="#5E71E4" stroke-width="2.913" stroke-linecap="round" stroke-linejoin="round"/>
<path d="M807.188 718.118C809.113 704.051 814.304 690.629 822.344 678.927" stroke="#5E71E4" stroke-width="2.913" stroke-linecap="round" stroke-linejoin="round"/>
<path d="M807.258 717.433C808.373 705.38 807.704 693.229 805.271 681.372" stroke="#5E71E4" stroke-width="2.913" stroke-linecap="round" stroke-linejoin="round"/>
<path d="M442.8 730.328C443.06 729.223 442.974 728.065 442.553 727.011C442.133 725.956 441.399 725.056 440.45 724.433C438.516 723.223 436.244 722.667 433.97 722.845C430.018 722.971 426.188 724.24 422.943 726.5C421.729 727.209 420.807 728.328 420.343 729.655C418.189 738.244 440.906 736.372 442.8 730.328Z" stroke="#5E71E4" stroke-width="2.913" stroke-linecap="round" stroke-linejoin="round"/>
<path d="M111.829 708.77C111.322 709.004 110.884 709.364 110.555 709.815C110.227 710.266 110.02 710.794 109.954 711.348C109.987 712.763 111.517 713.624 112.879 714.013C115.298 714.701 117.84 714.835 120.318 714.405C123.346 713.877 126.325 710.567 122.836 708.457C119.625 706.515 114.947 706.881 111.829 708.77Z" stroke="#5E71E4" stroke-width="2.913" stroke-linecap="round" stroke-linejoin="round"/>
<path d="M239.609 702.673C238.904 702.998 238.146 703.479 238.029 704.246C237.892 705.146 238.701 705.89 239.481 706.352C242.981 708.424 247.41 708.468 251.281 707.222C252.225 706.999 253.073 706.478 253.698 705.735C255.707 702.867 251.025 701.804 249.275 701.485C246.007 700.885 242.634 701.3 239.609 702.673V702.673Z" stroke="#5E71E4" stroke-width="2.913" stroke-linecap="round" stroke-linejoin="round"/>
<path d="M795.089 720.028C796.244 719.828 797.654 719.293 797.706 718.122C797.755 717.012 796.518 716.334 795.451 716.022C791.135 714.759 786.527 714.918 782.308 716.476C781.917 716.57 781.551 716.749 781.236 717C780.922 717.25 780.666 717.567 780.487 717.927C780.392 718.379 780.457 718.85 780.671 719.259C780.885 719.668 781.234 719.99 781.659 720.169C785.007 721.8 791.573 720.63 795.089 720.028Z" stroke="#5E71E4" stroke-width="2.913" stroke-linecap="round" stroke-linejoin="round"/>
<path d="M771.278 717.876C771.742 717.805 772.287 717.653 772.427 717.206C772.637 716.536 771.768 716.072 771.085 715.906C768.963 715.285 766.761 714.981 764.549 715.006C763.823 715.005 763.112 715.217 762.504 715.615C760.452 717.17 762.737 718.023 763.955 718.231C766.401 718.473 768.868 718.353 771.278 717.876V717.876Z" stroke="#5E71E4" stroke-width="2.913" stroke-linecap="round" stroke-linejoin="round"/>
<path d="M529.3 207.429C522.209 215.277 515.118 223.125 508.028 230.973" stroke="#5E71E4" stroke-width="2.913" stroke-linecap="round" stroke-linejoin="round"/>
<path d="M502.2 172.105C500.594 190.505 499.447 208.965 498.76 227.485" stroke="#5E71E4" stroke-width="2.913" stroke-linecap="round" stroke-linejoin="round"/>
<path d="M474.013 207.867C478.403 214.479 482.792 221.09 487.181 227.7" stroke="#5E71E4" stroke-width="2.913" stroke-linecap="round" stroke-linejoin="round"/>
<path d="M426.778 439.778C431.274 441.089 435.428 443.37 438.947 446.459" stroke="url(#paint23_linear_38_4065)" stroke-width="2.913" stroke-linecap="round" stroke-linejoin="round"/>
<path d="M428.5 447.85C431.509 444.037 434.518 440.223 437.526 436.409" stroke="url(#paint24_linear_38_4065)" stroke-width="2.913" stroke-linecap="round" stroke-linejoin="round"/>
<path d="M832.307 313.652C835.853 314.687 839.13 316.485 841.907 318.921" stroke="url(#paint25_linear_38_4065)" stroke-width="2.913" stroke-linecap="round" stroke-linejoin="round"/>
<path d="M833.666 320.02L840.785 310.994" stroke="url(#paint26_linear_38_4065)" stroke-width="2.913" stroke-linecap="round" stroke-linejoin="round"/>
<path d="M131.854 365.274C135.4 366.308 138.677 368.107 141.454 370.543" stroke="url(#paint27_linear_38_4065)" stroke-width="2.913" stroke-linecap="round" stroke-linejoin="round"/>
<path d="M133.212 371.64C135.586 368.632 137.959 365.624 140.331 362.615" stroke="url(#paint28_linear_38_4065)" stroke-width="2.913" stroke-linecap="round" stroke-linejoin="round"/>
<path d="M387.248 424.944L392.035 429.241L398.287 427.734L395.679 433.613L399.044 439.094L392.648 438.432L388.475 443.325L387.129 437.036L381.184 434.58L386.749 431.356L387.248 424.944Z" stroke="#5E71E4" stroke-width="2.913" stroke-linecap="round" stroke-linejoin="round"/>
<g opacity="0.1">
<path d="M278.478 337.257C280.565 341.115 274.961 343.542 272.096 343.795C267.775 344.177 263.401 343.218 259.07 343.267C251.868 343.216 244.725 344.572 238.042 347.257C223.964 353.141 211.793 362.814 202.883 375.2C192.983 389.18 185.946 406.671 188.76 424C190.132 432.022 193.818 439.468 199.365 445.423C205.212 451.688 213.741 454.851 221.98 456.459C243.357 460.632 265.708 459.598 287.26 457.485C292.047 457.016 296.167 453.727 296.167 448.579C296.167 444.105 292.078 439.227 287.26 439.672C268.742 441.384 250.36 440.253 231.931 437.987C225.277 437.169 218.193 436.002 212.731 431.816C207.85 428.078 206.165 421.486 206.189 415.564C206.248 401.317 214.977 386.874 223.383 375.85C231.926 364.65 243.352 357.558 256.951 354.25C264.912 352.313 273.603 355.511 280.885 350.508C286.206 346.853 289.078 339.034 284.878 333.523C282.063 329.83 276.147 332.943 278.478 337.261V337.257Z" fill="#5E71E4"/>
</g>
<g opacity="0.1">
<path d="M257.972 470.964C257.09 470 255.936 469.327 254.663 469.033C254.425 468.952 254.179 468.9 253.929 468.878C253.612 468.778 253.682 468.819 254.14 469.002C254.645 469.236 254.664 469.236 254.195 469.002C253.993 468.845 253.776 468.708 253.547 468.595C253.738 468.659 254.659 469.383 253.961 468.84C253.174 468.228 254.253 469.618 254.146 469.093C254.024 468.801 253.877 468.52 253.708 468.253L251.369 477.174C252.828 476.306 254.072 475.119 255.007 473.702C256.161 471.687 256.473 469.299 255.876 467.056C255.302 465.062 254.03 463.342 252.293 462.208C250.556 461.074 248.469 460.602 246.413 460.878C242.364 461.422 238.742 465.063 238.934 469.349C238.966 471.411 239.729 473.394 241.085 474.948C242.442 476.501 244.305 477.523 246.344 477.832L242.444 474.832C243.868 477.226 246.028 479.096 248.602 480.163C252.14 481.656 256.739 481.585 258.855 477.819C260.223 475.383 259.555 473.011 257.969 470.957L257.972 470.964Z" fill="#5E71E4"/>
</g>
<g opacity="0.1">
<path d="M292.82 326.752C291.709 315.792 292.158 304.73 294.154 293.896C295.112 288.741 296.438 283.661 298.12 278.696C299.763 273.849 302.963 268.987 303.327 263.881C303.557 260.658 299.421 259.491 297.327 261.395C293.6 264.783 292.054 271.013 290.477 275.684C284.811 292.394 283.34 310.241 286.193 327.653C286.757 331.378 293.201 330.544 292.822 326.753L292.82 326.752Z" fill="#5E71E4"/>
</g>
<g opacity="0.1">
<path d="M514.307 248.57C507.77 247.333 501.734 246.8 495.188 248.211C488.608 249.629 482.004 250.64 476.448 254.711C463.722 264.031 457.653 279.923 456.104 295.168C454.361 312.315 455.734 330.111 455.816 347.324C455.902 365.591 455.987 383.855 456.072 402.117C456.414 475.176 456.96 548.233 457.71 621.29C457.81 631.321 457.802 641.36 458.021 651.39C458.211 660.103 458.93 668.99 462.199 677.143C467.807 691.133 488.091 710.556 503.758 699.213C506.309 697.365 507.079 693.998 504.744 691.556C500.223 686.828 494.95 684.988 489.718 681.308C484.978 677.975 482.418 673.238 480.96 667.708C479.275 661.308 479.251 654.599 479.186 648.024C479.101 639.443 479.052 630.862 478.986 622.281C478.728 589.072 478.44 555.864 478.123 522.657C477.461 455.907 476.684 389.159 475.79 322.413C475.678 313.613 475.479 304.821 475.921 296.025C476.29 288.696 476.715 280.901 480.345 274.343C483.416 268.796 488.245 263.619 492.99 259.457C498.098 254.976 507.023 253.151 513.621 253.631C516.492 253.84 517.17 249.109 514.307 248.567V248.57Z" fill="#5E71E4"/>
</g>
<g opacity="0.1">
<path d="M222.034 682.123C221.534 674.563 220.825 667.771 223.556 660.423C225.826 654.457 229.986 649.398 235.4 646.016C248.362 637.882 263.172 641.116 277.087 644.583C282.92 646.035 287.005 641.898 287.709 636.492C288.851 628.23 291.344 620.211 295.088 612.757C298.768 605.267 303.26 596.99 309.334 591.157C315.106 585.61 306.589 577.403 300.65 582.472C298.595 584.227 296.318 585.454 294.35 587.403C292.486 589.253 290.677 591.195 288.932 593.159C285.47 597.002 282.485 601.248 280.041 605.806C275.093 615.37 272 625.783 270.923 636.496L281.545 628.404C262.045 624.014 241.528 621.134 225.215 635.187C212.385 646.241 204.98 668.821 214.952 684.043C216.873 686.975 222.293 686.121 222.027 682.127L222.034 682.123Z" fill="#5E71E4"/>
</g>
<g opacity="0.1">
<path d="M361.3 537.1C368.132 535.083 374.374 532.571 381.633 532.529C389.824 532.481 397.784 534.39 405.72 536.2C413.382 537.947 417.562 529.415 412.972 523.743C406.032 515.167 405.815 503.595 410.031 493.783C412.202 488.732 414.945 484.75 419.705 481.883C424.362 479.073 429.842 479.046 434.231 476.034C436.45 474.511 436.985 470.794 434.231 469.396C427.472 465.962 419.118 469.646 412.985 473.296C406.795 476.975 400.459 481.968 396.774 488.202C388.183 502.738 392.32 521.796 402.431 534.291L409.683 521.834C393.521 518.148 368.219 512.459 355.463 527.08C351.71 531.38 355.224 538.901 361.3 537.108V537.1Z" fill="#5E71E4"/>
</g>
<g opacity="0.1">
<path d="M737.536 439.043C740.711 438.271 742.412 435.468 744.512 433.133C746.927 430.449 749.243 427.693 751.742 425.082C756.717 419.727 762.136 414.804 767.942 410.365C773.823 406.136 779.947 402.256 786.283 398.745C791.537 395.736 799.026 393.772 802.752 388.822C803.502 387.822 802.645 386.557 801.687 386.205C795.411 383.9 786.911 388.105 781.124 390.458C773.804 393.556 766.932 397.619 760.69 402.54C754.481 407.111 748.811 412.374 743.791 418.226C739.884 422.954 732.651 430.39 733.846 436.947C734.066 437.709 734.575 438.355 735.265 438.748C735.954 439.14 736.77 439.247 737.538 439.047L737.536 439.043Z" fill="#5E71E4"/>
</g>
</g>
<defs>
<linearGradient id="paint0_linear_38_4065" x1="802.115" y1="604.875" x2="802.115" y2="697.713" gradientUnits="userSpaceOnUse">
<stop stop-color="#5E71E4"/>
<stop offset="1" stop-color="#5E71E4"/>
</linearGradient>
<linearGradient id="paint1_linear_38_4065" x1="770.618" y1="385.373" x2="770.618" y2="617.219" gradientUnits="userSpaceOnUse">
<stop stop-color="#5E71E4"/>
<stop offset="1" stop-color="#5E71E4"/>
</linearGradient>
<linearGradient id="paint2_linear_38_4065" x1="587.289" y1="418.332" x2="587.289" y2="567.839" gradientUnits="userSpaceOnUse">
<stop stop-color="#5E71E4"/>
<stop offset="1" stop-color="#5E71E4"/>
</linearGradient>
<linearGradient id="paint3_linear_38_4065" x1="556.014" y1="374.163" x2="556.014" y2="457.876" gradientUnits="userSpaceOnUse">
<stop stop-color="#5E71E4"/>
<stop offset="1" stop-color="#5E71E4"/>
</linearGradient>
<linearGradient id="paint4_linear_38_4065" x1="547.151" y1="362.652" x2="547.151" y2="445.181" gradientUnits="userSpaceOnUse">
<stop stop-color="#5E71E4"/>
<stop offset="1" stop-color="#5E71E4"/>
</linearGradient>
<linearGradient id="paint5_linear_38_4065" x1="409.462" y1="468.593" x2="409.462" y2="686.371" gradientUnits="userSpaceOnUse">
<stop stop-color="#5E71E4"/>
<stop offset="1" stop-color="#5E71E4"/>
</linearGradient>
<linearGradient id="paint6_linear_38_4065" x1="317.022" y1="249.409" x2="317.022" y2="481.319" gradientUnits="userSpaceOnUse">
<stop stop-color="#5E71E4"/>
<stop offset="1" stop-color="#5E71E4"/>
</linearGradient>
<linearGradient id="paint7_linear_38_4065" x1="269.586" y1="581.425" x2="269.586" y2="686.342" gradientUnits="userSpaceOnUse">
<stop stop-color="#5E71E4"/>
<stop offset="1" stop-color="#5E71E4"/>
</linearGradient>
<linearGradient id="paint8_linear_38_4065" x1="301.712" y1="327.622" x2="301.712" y2="342.615" gradientUnits="userSpaceOnUse">
<stop stop-color="#5E71E4"/>
<stop offset="1" stop-color="#5E71E4"/>
</linearGradient>
<linearGradient id="paint9_linear_38_4065" x1="811.964" y1="434.363" x2="811.964" y2="637.316" gradientUnits="userSpaceOnUse">
<stop stop-color="#5E71E4"/>
<stop offset="1" stop-color="#5E71E4"/>
</linearGradient>
<linearGradient id="paint10_linear_38_4065" x1="853.891" y1="444.225" x2="853.891" y2="486.309" gradientUnits="userSpaceOnUse">
<stop stop-color="#5E71E4"/>
<stop offset="1" stop-color="#5E71E4"/>
</linearGradient>
<linearGradient id="paint11_linear_38_4065" x1="873.1" y1="481.484" x2="873.1" y2="485.931" gradientUnits="userSpaceOnUse">
<stop stop-color="#5E71E4"/>
<stop offset="1" stop-color="#5E71E4"/>
</linearGradient>
<linearGradient id="paint12_linear_38_4065" x1="827.389" y1="473.036" x2="827.389" y2="522.854" gradientUnits="userSpaceOnUse">
<stop stop-color="#5E71E4"/>
<stop offset="1" stop-color="#5E71E4"/>
</linearGradient>
<linearGradient id="paint13_linear_38_4065" x1="850.499" y1="522.819" x2="850.499" y2="523.951" gradientUnits="userSpaceOnUse">
<stop stop-color="#5E71E4"/>
<stop offset="1" stop-color="#5E71E4"/>
</linearGradient>
<linearGradient id="paint14_linear_38_4065" x1="798.612" y1="507.301" x2="798.612" y2="554.846" gradientUnits="userSpaceOnUse">
<stop stop-color="#5E71E4"/>
<stop offset="1" stop-color="#5E71E4"/>
</linearGradient>
<linearGradient id="paint15_linear_38_4065" x1="828.094" y1="554.35" x2="828.094" y2="556.388" gradientUnits="userSpaceOnUse">
<stop stop-color="#5E71E4"/>
<stop offset="1" stop-color="#5E71E4"/>
</linearGradient>
<linearGradient id="paint16_linear_38_4065" x1="773.492" y1="551.669" x2="773.492" y2="587.737" gradientUnits="userSpaceOnUse">
<stop stop-color="#5E71E4"/>
<stop offset="1" stop-color="#5E71E4"/>
</linearGradient>
<linearGradient id="paint17_linear_38_4065" x1="805.228" y1="587.884" x2="805.228" y2="591.132" gradientUnits="userSpaceOnUse">
<stop stop-color="#5E71E4"/>
<stop offset="1" stop-color="#5E71E4"/>
</linearGradient>
<linearGradient id="paint18_linear_38_4065" x1="751.477" y1="578.604" x2="751.477" y2="616.99" gradientUnits="userSpaceOnUse">
<stop stop-color="#5E71E4"/>
<stop offset="1" stop-color="#5E71E4"/>
</linearGradient>
<linearGradient id="paint19_linear_38_4065" x1="778.368" y1="617.151" x2="778.368" y2="624.873" gradientUnits="userSpaceOnUse">
<stop stop-color="#5E71E4"/>
<stop offset="1" stop-color="#5E71E4"/>
</linearGradient>
<linearGradient id="paint20_linear_38_4065" x1="367.101" y1="224.996" x2="367.101" y2="250.324" gradientUnits="userSpaceOnUse">
<stop stop-color="#5E71E4"/>
<stop offset="1" stop-color="#5E71E4"/>
</linearGradient>
<linearGradient id="paint21_linear_38_4065" x1="296.08" y1="177.54" x2="296.08" y2="187.472" gradientUnits="userSpaceOnUse">
<stop stop-color="#5E71E4"/>
<stop offset="1" stop-color="#5E71E4"/>
</linearGradient>
<linearGradient id="paint22_linear_38_4065" x1="703.458" y1="371.829" x2="703.458" y2="381.463" gradientUnits="userSpaceOnUse">
<stop stop-color="#5E71E4"/>
<stop offset="1" stop-color="#5E71E4"/>
</linearGradient>
<linearGradient id="paint23_linear_38_4065" x1="432.863" y1="439.778" x2="432.863" y2="446.459" gradientUnits="userSpaceOnUse">
<stop stop-color="#5E71E4"/>
<stop offset="1" stop-color="#5E71E4"/>
</linearGradient>
<linearGradient id="paint24_linear_38_4065" x1="433.013" y1="436.409" x2="433.013" y2="447.85" gradientUnits="userSpaceOnUse">
<stop stop-color="#5E71E4"/>
<stop offset="1" stop-color="#5E71E4"/>
</linearGradient>
<linearGradient id="paint25_linear_38_4065" x1="837.107" y1="313.652" x2="837.107" y2="318.921" gradientUnits="userSpaceOnUse">
<stop stop-color="#5E71E4"/>
<stop offset="1" stop-color="#5E71E4"/>
</linearGradient>
<linearGradient id="paint26_linear_38_4065" x1="837.225" y1="310.994" x2="837.225" y2="320.02" gradientUnits="userSpaceOnUse">
<stop stop-color="#5E71E4"/>
<stop offset="1" stop-color="#5E71E4"/>
</linearGradient>
<linearGradient id="paint27_linear_38_4065" x1="136.654" y1="365.274" x2="136.654" y2="370.543" gradientUnits="userSpaceOnUse">
<stop stop-color="#5E71E4"/>
<stop offset="1" stop-color="#5E71E4"/>
</linearGradient>
<linearGradient id="paint28_linear_38_4065" x1="136.771" y1="362.615" x2="136.771" y2="371.64" gradientUnits="userSpaceOnUse">
<stop stop-color="#5E71E4"/>
<stop offset="1" stop-color="#5E71E4"/>
</linearGradient>
<clipPath id="clip0_38_4065">
<rect width="960" height="960" fill="white"/>
</clipPath>
</defs>
</svg>
