<svg width="249" height="191" viewBox="0 0 249 191" fill="none" xmlns="http://www.w3.org/2000/svg">
<mask id="mask0_1974_51874" style="mask-type:alpha" maskUnits="userSpaceOnUse" x="-39" y="-67" width="288" height="258">
<path fill-rule="evenodd" clip-rule="evenodd" d="M119.214 190.673C100.097 193.229 83.8152 177.31 64.7854 174.175C32.9373 168.928 -8.57129 190.173 -30.0524 166.082C-49.653 144.099 -32.8919 106.017 -19.2727 79.9029C-7.59808 57.5179 18.4755 48.264 39.0353 33.612C51.8199 24.501 68.4839 21.7754 78.8435 9.97995C96.4744 -10.0946 95.7627 -44.8768 119.214 -57.6789C142.311 -70.288 175.711 -70.1973 196.743 -54.3827C218.135 -38.2981 213.162 -4.85521 222.716 20.1456C230.574 40.7069 253.947 58.6934 248.06 79.9029C241.789 102.493 210.849 106.724 194.123 123.152C182.758 134.315 177.672 149.995 165.839 160.661C151.872 173.25 137.851 188.18 119.214 190.673Z" fill="#C4C4C4"/>
</mask>
<g mask="url(#mask0_1974_51874)">
<path fill-rule="evenodd" clip-rule="evenodd" d="M101.532 173.016C82.413 175.572 66.1287 159.657 47.0962 156.523C15.2438 151.278 -26.2704 172.517 -47.7544 148.431C-67.3577 126.454 -50.5944 88.3812 -36.9732 62.2738C-25.2971 39.8943 0.780114 30.6427 21.3427 15.9942C34.129 6.88547 50.7952 4.16058 61.1563 -7.63202C78.7896 -27.7016 78.0778 -62.4754 101.532 -75.2743C124.632 -87.8803 158.037 -87.7897 179.072 -71.9789C200.467 -55.8983 195.493 -22.4635 205.049 2.53116C212.907 23.0874 236.284 41.0695 230.396 62.2738C224.124 84.8585 193.18 89.0881 176.452 105.512C165.085 116.673 159.998 132.349 148.164 143.012C134.195 155.598 120.172 170.524 101.532 173.016Z" stroke="white" stroke-width="4"/>
<path fill-rule="evenodd" clip-rule="evenodd" d="M81.0409 133.306C64.3975 135.531 50.2215 121.678 33.6532 118.949C5.92477 114.383 -30.2145 132.871 -48.9169 111.906C-65.9822 92.775 -51.3892 59.6332 -39.5316 36.9074C-29.3672 17.4265 -6.66628 9.37316 11.234 -3.37795C22.3649 -11.3069 36.8733 -13.6789 45.8929 -23.944C61.2432 -41.4141 60.6235 -71.6839 81.0409 -82.825C101.151 -93.7982 130.23 -93.7194 148.542 -79.9565C167.167 -65.9587 162.837 -36.8545 171.155 -15.0972C177.996 2.7965 198.346 18.4495 193.22 36.9074C187.761 56.5668 160.823 60.2486 146.261 74.5454C136.366 84.2603 131.938 97.9058 121.635 107.188C109.475 118.144 97.2677 131.137 81.0409 133.306Z" stroke="white" stroke-width="4"/>
<path fill-rule="evenodd" clip-rule="evenodd" d="M53.8954 99.4769C39.1085 101.458 26.5138 89.1207 11.7936 86.6908C-12.8418 82.6243 -44.9499 99.0898 -61.5662 80.4178C-76.7278 63.3804 -63.7627 33.8646 -53.2278 13.6251C-44.1971 -3.72434 -24.0284 -10.8966 -8.12481 -22.2526C1.76444 -29.314 14.6545 -31.4265 22.668 -40.5685C36.306 -56.1273 35.7555 -83.0852 53.8954 -93.0074C71.7619 -102.78 97.5976 -102.71 113.867 -90.4527C130.414 -77.9864 126.568 -52.0665 133.958 -32.6897C140.036 -16.7537 158.116 -2.81324 153.562 13.6251C148.711 31.1336 124.778 34.4126 111.84 47.1453C103.049 55.7972 99.1149 67.9498 89.9617 76.2164C79.1577 85.9738 68.3122 97.5451 53.8954 99.4769Z" stroke="white" stroke-width="4"/>
</g>
</svg>
