<svg width="40" height="40" viewBox="0 0 40 40" fill="none" xmlns="http://www.w3.org/2000/svg">
<path fill-rule="evenodd" clip-rule="evenodd" d="M25.885 35.6258C29.0254 34.7445 32.3133 34.3 35.5028 33.8927C36.1898 33.8073 36.8276 34.2838 36.8766 34.9551C36.9748 35.6268 36.4838 36.2412 35.8459 36.3265C32.7545 36.7186 29.5653 37.1381 26.5721 37.9865C25.9342 38.1705 25.247 37.7917 25.0507 37.1401C24.8544 36.489 25.2471 35.8103 25.885 35.6258Z" fill="#5E72E4" fill-opacity="0.25"/>
<path fill-rule="evenodd" clip-rule="evenodd" d="M16.3658 23.1314C21.4199 17.9737 27.1119 13.48 32.0679 8.18397C32.5095 7.68935 33.2947 7.66285 33.7853 8.12459C34.276 8.58682 34.3249 9.36407 33.8342 9.85869C28.8782 15.1699 23.1862 19.6784 18.1321 24.8513C17.6414 25.3341 16.8565 25.341 16.3658 24.866C15.9242 24.3915 15.8751 23.6142 16.3658 23.1314Z" fill="#5E72E4" fill-opacity="0.25"/>
<path fill-rule="evenodd" clip-rule="evenodd" d="M6.89485 3.29334C6.74764 6.24534 6.60072 9.19733 6.45351 12.1498C6.45351 12.826 5.86439 13.3481 5.17743 13.3152C4.49046 13.2818 4.00006 12.7063 4.00006 12.0296C4.14726 9.0727 4.29418 6.11629 4.44139 3.15987C4.49046 2.4837 5.07939 1.96504 5.76635 2.00184C6.40425 2.03865 6.94391 2.61766 6.89485 3.29334Z" fill="#5E72E4" fill-opacity="0.25"/>
</svg>
