<svg width="138" height="139" viewBox="0 0 138 139" fill="none" xmlns="http://www.w3.org/2000/svg">
<path d="M23.4234 46.2636C26.529 47.8238 29.634 49.7116 32.2392 52.3233C33.5226 53.6316 34.6504 55.084 35.6001 56.6514C36.524 58.1938 37.3087 59.8153 37.9452 61.4967C39.2645 65.0312 39.9804 68.6876 40.5359 72.2705C40.6814 73.1594 40.8127 74.0479 40.9363 74.9334L41.292 77.5852L38.0517 77.9886C37.5322 73.8177 37.1252 69.5317 37.4818 65.1838C37.8213 60.8552 38.959 56.4442 41.2669 52.5808C41.8461 51.6094 42.498 50.6832 43.2169 49.8101C43.9377 48.9209 44.7387 48.0997 45.6098 47.3571C45.822 47.1618 46.0525 46.9923 46.2781 46.8156C46.5068 46.6435 46.7269 46.4568 46.9638 46.2978C47.4363 45.9774 47.905 45.6469 48.3996 45.3685C49.3699 44.791 50.3813 44.2856 51.4256 43.8564C52.4512 43.4323 53.4994 43.0654 54.5655 42.7574C55.6214 42.4626 56.6815 42.19 57.7387 41.9766C59.8554 41.527 61.9585 41.2239 64.0324 40.926L64.2369 44.8562L62.3888 44.8165C60.3808 44.7788 58.3546 44.6712 56.3128 44.5062C54.2227 44.356 52.1469 44.0492 50.1028 43.5882C47.9478 43.1068 45.8828 42.2864 43.9848 41.1578C43.0043 40.5522 42.0978 39.8343 41.2837 39.0186C40.4729 38.1984 39.7672 37.2807 39.1827 36.2864C38.0282 34.344 37.3201 32.3117 36.7149 30.3568C36.1038 28.3898 35.5948 26.3925 35.19 24.3729C34.7751 22.3568 34.4788 20.3181 34.3026 18.2672C34.2177 17.2423 34.1515 16.2161 34.1196 15.1888L34.096 14.4186C34.0899 14.1619 34.0964 13.9047 34.0748 13.6484C34.0453 13.1353 34.0389 12.6215 34.0201 12.1076L37.5042 12.2726C37.2114 16.0216 36.898 19.8348 36.1756 23.6665C36.077 24.1446 35.9869 24.6248 35.8806 25.1017L35.5232 26.5304L35.115 27.9533L34.6507 29.3669C33.9928 31.2656 33.1529 33.0963 32.1428 34.8334C30.1897 38.1172 27.5108 40.9104 24.3115 42.999C23.0746 43.8307 21.7214 44.4747 20.2959 44.91C19.7753 45.0591 19.2437 45.1664 18.7061 45.231C18.4665 45.2571 18.2407 45.2741 18.0288 45.282L17.8722 45.2866L17.7455 45.2707C17.6566 45.2586 17.5708 45.2468 17.4881 45.2356C16.4631 45.0858 15.894 44.9074 16.6837 44.131C16.7979 44.0233 16.9187 43.9228 17.0454 43.83C17.1116 43.7785 17.2052 43.7202 17.2649 43.6714C17.3204 43.625 17.3784 43.5765 17.4388 43.526C17.6803 43.3258 17.9721 43.13 18.2942 42.8984C18.6136 42.6612 18.9849 42.4358 19.3747 42.157C19.5726 42.025 19.7793 41.8871 19.9948 41.7432C20.2062 41.5934 20.4276 41.4414 20.6588 41.287C21.8552 40.4665 22.9966 39.5685 24.0756 38.5988C25.1777 37.6241 26.203 36.566 27.1424 35.4337C28.4228 33.8721 29.499 32.1537 30.3451 30.3202C31.2003 28.4475 31.8808 26.4999 32.3777 24.5021C33.4445 20.4756 33.9269 16.2404 34.3795 11.9717L34.3798 11.9692C34.4174 11.6156 34.5889 11.2897 34.859 11.0583C35.1291 10.827 35.4775 10.7076 35.8327 10.7248C36.188 10.7419 36.5232 10.8942 36.7698 11.1505C37.0164 11.4068 37.1557 11.7476 37.1591 12.1033C37.1655 12.7958 37.1426 13.4896 37.1911 14.1816C37.235 14.8732 37.287 15.5641 37.3571 16.2531C37.4909 17.6317 37.6898 19.0021 37.9169 20.3652C38.3662 23.0898 39.0247 25.7758 39.8865 28.3993C40.4378 30.1934 41.1538 31.9326 42.0255 33.5948C42.4355 34.3461 42.9189 35.0549 43.4685 35.7109C44.0048 36.3274 44.5989 36.891 45.2426 37.3942C45.8469 37.8464 46.4884 38.2465 47.1602 38.5902C47.8631 38.9362 48.5886 39.2342 49.3317 39.4822C50.8868 39.9785 52.4849 40.3283 54.1052 40.5269C57.4238 40.9587 60.8729 41.0218 64.3419 41.1499L64.3622 41.1506C64.7968 41.1667 65.2095 41.3454 65.5185 41.6515C65.8274 41.9576 66.01 42.3686 66.0301 42.803C66.0501 43.2374 65.9061 43.6635 65.6267 43.9968C65.3473 44.33 64.9528 44.546 64.5215 44.602C61.8878 44.9438 59.2963 45.3015 56.8058 45.8817C54.3256 46.4745 51.9238 47.2515 49.8028 48.471C48.8982 48.9878 48.0439 49.5882 47.2513 50.2644C46.4636 50.956 45.7421 51.7193 45.0959 52.5446C43.8061 54.2513 42.7921 56.1498 42.0909 58.1709C41.3732 60.2217 40.9103 62.3529 40.7125 64.5166C40.5068 66.716 40.4611 68.9273 40.5757 71.1333C40.6677 73.2808 40.8862 75.441 41.1396 77.6089L41.1412 77.6233C41.1866 78.0121 41.0759 78.4031 40.8335 78.7104C40.5911 79.0178 40.2367 79.2164 39.848 79.2629C39.4593 79.3094 39.0681 79.1998 38.7601 78.9583C38.452 78.7167 38.2523 78.3629 38.2048 77.9744C37.7792 74.4925 37.33 71.0403 36.5251 67.7125C36.1469 66.0562 35.6638 64.4257 35.0785 62.8308C34.4941 61.2642 33.7637 59.756 32.8968 58.3262C32.6693 57.9806 32.4579 57.6221 32.2186 57.2854L31.4789 56.2915C30.9587 55.652 30.4055 55.0401 29.8214 54.4583C28.6127 53.3 27.2881 52.2689 25.8685 51.3815C25.1537 50.9277 24.4168 50.4997 23.664 50.0919C23.2878 49.888 22.9078 49.6888 22.5242 49.4943L21.9464 49.2053L21.6576 49.0637L21.3832 48.9408C21.0253 48.7687 20.6325 48.6294 20.2509 48.4785C19.8539 48.3492 19.4658 48.2022 19.0582 48.0907C18.256 47.8412 17.4276 47.6519 16.5997 47.4725C14.994 47.1377 13.3649 46.9274 11.7269 46.8434C10.1392 46.7652 8.57254 46.8586 7.27045 47.3095L6.89619 45.8206L6.89498 45.7222H6.89647H6.90563H6.91789H6.94242L6.99147 45.7225C7.02329 45.7231 7.05589 45.7239 7.1017 45.7216L7.35507 45.7133L7.87042 45.692C8.21608 45.6765 8.55977 45.6612 8.9015 45.6459C9.58762 45.6186 10.2654 45.5916 10.9347 45.565C12.2756 45.5165 13.5848 45.4875 14.8638 45.4605C15.299 45.4441 15.7348 45.4611 16.1674 45.5114C16.3352 45.5248 16.4354 45.5754 16.5902 45.5748C16.6909 45.572 16.7901 45.6 16.8744 45.6551L17.1284 45.3588C17.0925 45.494 17.0428 45.5536 17.0665 45.5658C17.0827 45.5779 17.1708 45.5396 17.2514 45.4103C17.2612 45.3947 17.2673 45.3772 17.2695 45.359C17.2717 45.3408 17.2698 45.3223 17.264 45.3049C17.2582 45.2875 17.2487 45.2716 17.236 45.2583C17.2233 45.245 17.2079 45.2347 17.1908 45.2281C17.1737 45.2215 17.1553 45.2187 17.137 45.22C17.1187 45.2214 17.1009 45.2267 17.0849 45.2357C17.0689 45.2447 17.0551 45.2571 17.0445 45.2721C17.0338 45.2871 17.0266 45.3042 17.0234 45.3222L16.9443 45.769C16.9296 45.8516 16.818 45.9779 16.6109 46.1182C16.4671 46.2354 16.3105 46.336 16.144 46.4179C15.6311 46.6688 15.0901 46.8576 14.5325 46.9804C13.3246 47.2582 12.1081 47.5039 10.8735 47.7374C10.2566 47.8537 9.63534 47.9656 9.00983 48.0732L8.06315 48.2301L7.57664 48.3046L7.32341 48.3405C7.22828 48.353 7.08605 48.3657 6.96914 48.3758C6.55031 48.4119 6.13207 48.3003 5.78686 48.0604C5.44166 47.8205 5.19126 47.4674 5.07903 47.0623C4.96681 46.6571 4.99984 46.2255 5.1724 45.8422C5.34496 45.4589 5.64618 45.148 6.02387 44.9634L6.14462 44.9053C7.11747 44.4525 8.15086 44.1433 9.2125 43.9872C9.70425 43.9276 10.2058 43.8507 10.688 43.8331C10.9309 43.8198 11.1763 43.8 11.4175 43.7937L12.1376 43.7879C14.0483 43.8068 15.9515 44.0292 17.8151 44.4514C18.7567 44.6546 19.6876 44.9048 20.6042 45.2011L21.2995 45.4331L21.9978 45.6988C22.2287 45.7814 22.4665 45.8934 22.7012 45.9954L23.0536 46.1516L23.3677 46.303C23.3858 46.2892 23.4027 46.2766 23.4234 46.2636Z" fill="white"/>
<path d="M105.979 54.3204C107.598 56.2618 108.904 58.4444 109.849 60.7891C109.965 61.0827 110.09 61.3722 110.196 61.669L110.48 62.5734C110.571 62.8761 110.677 63.1733 110.753 63.48L110.961 64.4058C111.024 64.7155 111.111 65.0196 111.154 65.3335L111.282 66.2743L111.345 66.7444C111.367 66.8996 111.388 67.0563 111.399 67.2288C111.424 67.567 111.437 67.9164 111.429 68.2801C111.42 68.934 111.314 69.5828 111.113 70.2052C110.989 70.5679 110.822 70.9147 110.617 71.2386C110.388 71.5839 110.111 71.8945 109.795 72.161L109.772 72.1799C109.51 72.4001 109.187 72.5358 108.846 72.5693C108.505 72.6027 108.162 72.5322 107.862 72.3672C107.562 72.2021 107.318 71.9501 107.164 71.6443C107.01 71.3385 106.951 70.9931 106.997 70.6536C107.209 69.0807 107.511 67.5211 107.9 65.9824C108.534 63.4099 109.515 60.9358 110.818 58.6287C112.152 56.2699 113.896 54.1677 115.968 52.4205C118.089 50.668 120.539 49.3568 123.174 48.5639C125.881 47.7592 128.743 47.6247 131.513 48.172C131.92 48.256 132.29 48.4643 132.574 48.7681C132.857 49.0719 133.039 49.4563 133.095 49.8681C133.15 50.2798 133.076 50.6986 132.883 51.0666C132.69 51.4346 132.388 51.7335 132.018 51.9222L131.981 51.9406C131.08 52.3861 130.113 52.6869 129.118 52.8319C128.203 52.9602 127.278 52.9971 126.356 52.942C125.472 52.8982 124.63 52.7934 123.82 52.6773C123.013 52.5586 122.243 52.4431 121.407 52.2904C120.204 52.0881 119.027 51.7552 117.897 51.2976C117.278 51.0379 116.686 50.7179 116.13 50.3422C115.563 49.9548 115.039 49.507 114.568 49.0067C113.693 48.0479 112.978 46.9546 112.45 45.7686C111.962 44.6731 111.578 43.5336 111.305 42.3656C110.202 37.8393 110.295 33.104 111.575 28.6247L111.577 28.6181C111.689 28.2277 111.913 27.8786 112.221 27.6138C112.529 27.3489 112.908 27.18 113.311 27.1277C113.713 27.0754 114.123 27.142 114.488 27.3194C114.853 27.4968 115.159 27.7772 115.367 28.1261C116.019 29.2592 116.372 30.5396 116.393 31.8468C116.414 32.9927 116.272 34.1359 115.971 35.2419C115.839 35.7756 115.666 36.269 115.502 36.7677C115.319 37.2596 115.14 37.754 114.923 38.231C114.507 39.1925 114.021 40.1214 113.466 41.0098C111.262 44.5979 108.068 47.4721 104.267 49.2858C101.85 50.4191 99.2246 51.0417 96.5555 51.1147C95.5083 51.1511 94.4626 51.0075 93.4639 50.6902C93.2613 50.6223 93.072 50.5523 92.8953 50.4786C92.7192 50.3977 92.5556 50.315 92.4047 50.2306C92.1283 50.0828 91.8712 49.9015 91.6392 49.6909C91.0288 49.1409 91.1447 48.6982 91.751 48.4088C92.3596 48.1256 93.4592 47.976 94.9531 47.826L95.6688 47.7488L96.393 47.652C96.8777 47.578 97.3687 47.5165 97.8578 47.4248C98.8342 47.2522 99.7994 47.0214 100.748 46.7338C102.579 46.1643 104.298 45.283 105.83 44.1288C108.925 41.8026 111.172 38.5269 112.23 34.8026C112.482 33.954 112.61 33.0733 112.61 32.188C112.621 31.4573 112.425 30.7385 112.044 30.1148L115.299 29.6867C114.968 31.0044 114.761 32.3502 114.68 33.7065C114.525 36.2108 114.867 38.7859 115.298 41.152C115.597 42.8382 116.12 44.4344 116.97 45.6615C117.371 46.2516 117.878 46.7615 118.466 47.1648C119.108 47.5726 119.806 47.8824 120.539 48.0839C121.375 48.3148 122.224 48.4952 123.081 48.6242C123.995 48.7718 124.904 48.9201 125.76 49.0074C127.481 49.1927 129.066 49.1224 130.278 48.5284L130.697 51.8977L130.096 51.7836L129.796 51.7243L129.492 51.6884L128.882 51.6146L128.266 51.5836C126.866 51.5304 125.467 51.6944 124.117 52.0697C122.743 52.4554 121.425 53.0199 120.198 53.7488C118.963 54.4789 117.824 55.3589 116.805 56.3688C115.776 57.3941 114.862 58.5285 114.08 59.752C111.932 63.0715 110.664 67.0022 110.138 71.0194L107.761 69.7387C107.903 69.6193 108.01 69.464 108.072 69.2892C108.171 69.0169 108.227 68.7309 108.239 68.4415C108.258 68.0818 108.248 67.7212 108.21 67.363L108.04 66.1646C107.981 65.7644 107.9 65.3677 107.797 64.9766L107.661 64.3842C107.62 64.1855 107.542 63.9964 107.484 63.8018C107.356 63.4168 107.246 63.0246 107.103 62.6436L106.637 61.5135C105.96 60.0202 105.12 58.6071 104.13 57.3004C103.117 56.0024 101.97 54.8144 100.708 53.756C99.1151 52.4534 97.3811 51.3334 95.5387 50.4168C95.4279 50.3589 95.3191 50.2964 95.2075 50.2414L94.8677 50.092L94.1924 49.7863C93.7489 49.561 93.2871 49.4116 92.8345 49.2295L92.1561 48.9586C91.934 48.8787 91.7139 48.8068 91.4925 48.7507C91.0551 48.6146 90.5869 48.6126 90.1484 48.745C90.0411 48.786 89.9435 48.8364 89.8664 48.8713C89.8648 48.872 89.8634 48.873 89.8622 48.8743C89.861 48.8756 89.8601 48.8771 89.8594 48.8787L89.8505 48.9035C89.8215 48.9938 89.8278 49.0918 89.8679 49.1777C89.9043 49.2565 89.9563 49.327 90.0209 49.385C90.1376 49.4893 90.2835 49.555 90.4389 49.5732C90.5124 49.5831 90.5871 49.5773 90.6582 49.5563C90.7217 49.544 90.7843 49.5272 90.8454 49.5058C90.9483 49.4669 91.0234 49.4423 91.066 49.4697C91.1072 49.4954 91.1195 49.5764 91.0587 49.7145C91.0142 49.7989 90.955 49.8747 90.8839 49.9384C90.7985 50.0405 90.6873 50.1179 90.5618 50.1626C90.261 50.2843 89.9268 50.2951 89.6187 50.1931C89.3909 50.1177 89.1865 49.9846 89.0253 49.8067C88.9097 49.6777 88.8184 49.5287 88.756 49.3671C88.6844 49.1754 88.6519 48.9713 88.6605 48.7669C88.6664 48.6118 88.7169 48.4616 88.8059 48.3345L89.0293 48.0145C89.1463 47.8462 89.2834 47.6928 89.4376 47.5578C89.5236 47.4826 89.615 47.4138 89.711 47.3518C89.8133 47.2943 89.9195 47.2439 90.0287 47.201C90.5449 47.0049 91.094 46.9098 91.646 46.9211C92.0774 46.923 92.5079 46.9608 92.9331 47.0341L94.1019 47.2202L94.3959 47.2707L94.6841 47.3435L95.2624 47.4926C96.8214 47.8979 98.3269 48.4862 99.7476 49.2454C102.094 50.5592 104.185 52.2857 105.918 54.3421C105.938 54.3349 105.956 54.3284 105.979 54.3204Z" fill="white"/>
<path d="M69.5868 96.0341L70.818 96.7233L72.0028 97.4917L72.2975 97.6854L72.5804 97.8974L73.1452 98.3222C73.3322 98.4651 73.5229 98.6032 73.7065 98.7505L74.2414 99.2137C74.957 99.8284 75.6375 100.483 76.2797 101.174L77.203 102.245C77.5054 102.606 77.7718 102.994 78.0563 103.368C79.1474 104.89 80.0725 106.524 80.8158 108.243C81.5349 109.96 82.0799 111.744 82.4425 113.57C82.5251 114.055 82.626 114.538 82.6885 115.026L82.8512 116.495L82.9229 117.971C82.9482 118.463 82.9159 118.957 82.9144 119.45C82.8503 121.423 82.5692 123.384 82.0762 125.296L81.6906 126.641C81.5797 127.028 81.3329 127.361 80.9957 127.58C80.6584 127.8 80.2534 127.889 79.8551 127.833C79.4569 127.778 79.0922 127.58 78.8283 127.276C78.5644 126.973 78.4189 126.584 78.4188 126.182L78.4193 126.104C78.4231 121.762 78.4138 117.285 79.2483 112.788C79.6584 110.512 80.3293 108.29 81.2479 106.168C82.1862 103.986 83.4726 101.972 85.0569 100.203C86.6819 98.4505 88.591 96.9853 90.7037 95.8688C92.7542 94.7984 94.9112 93.9458 97.1395 93.3252C98.2348 93.0124 99.333 92.7451 100.435 92.5087C101.54 92.2751 102.672 92.0692 103.841 91.9415C105.036 91.8003 106.241 91.7646 107.442 91.8348C108.702 91.9091 109.947 92.1447 111.148 92.5357C111.543 92.6646 111.889 92.9125 112.138 93.2454C112.388 93.5783 112.528 93.9801 112.541 94.3959C112.553 94.8117 112.437 95.2212 112.208 95.5685C111.979 95.9158 111.649 96.1841 111.262 96.3366L111.219 96.3534C109.329 97.0567 107.331 97.4243 105.314 97.4396C103.175 97.4526 101.038 97.2827 98.9278 96.9318C96.8353 96.6413 94.7636 96.217 92.7254 95.6613C91.6721 95.3695 90.6376 95.0136 89.6277 94.5957C88.5874 94.1737 87.5837 93.6667 86.6267 93.0799C85.645 92.4808 84.7237 91.788 83.8756 91.0111C83.0319 90.2299 82.2682 89.3665 81.5957 88.4339C80.317 86.6311 79.2789 84.6693 78.5075 82.5982C76.9912 78.6192 76.0545 74.4429 75.7262 70.1975C75.6878 69.668 75.6548 69.1381 75.6366 68.6074C75.6247 68.3422 75.6162 68.0769 75.6129 67.8114C75.6087 67.5437 75.5991 67.2959 75.6046 66.9703C75.6044 66.2551 75.7101 65.5439 75.9183 64.8597C76.061 64.4076 76.2741 63.9808 76.5497 63.5951C76.8789 63.139 77.3045 62.7609 77.7963 62.4878L77.8172 62.4764C78.0578 62.3452 78.3219 62.2627 78.5945 62.2335C78.867 62.2044 79.1426 62.2292 79.4056 62.3066C79.6686 62.3839 79.9137 62.5123 80.127 62.6844C80.3404 62.8565 80.5177 63.069 80.6489 63.3096C80.7898 63.5704 80.8746 63.8577 80.898 64.1531C81.5136 72.6117 79.3304 81.038 74.6846 88.1333C73.6029 89.7818 72.3207 91.2898 70.8675 92.6224C70.1234 93.295 69.3262 93.9065 68.4838 94.451C67.6378 94.9981 66.7428 95.4655 65.8104 95.8471C64.3317 96.4749 62.7302 96.7607 61.1256 96.6831C60.0969 96.645 59.0924 96.3601 58.197 95.8523C57.2337 95.239 57.4245 94.8155 58.2634 94.6182C58.6899 94.495 59.2859 94.4188 60.0345 94.2759C60.9392 94.1072 61.8319 93.8799 62.707 93.5955C64.0504 93.1414 65.3205 92.494 66.4772 91.6736C67.6807 90.8117 68.7801 89.8131 69.7533 88.6977C71.1584 87.0669 72.3646 85.2749 73.3466 83.3594C74.3643 81.4363 75.1909 79.4181 75.8147 77.3337C77.0711 73.1641 77.5208 68.7931 77.1397 64.4551L79.6215 65.7876C79.6222 65.789 79.6258 65.7941 79.6222 65.7882L79.6128 65.7749C79.6144 65.7776 79.6163 65.7802 79.6183 65.7827C79.6234 65.7893 79.6283 65.7939 79.6256 65.7905V65.7955C79.6114 65.8158 79.5995 65.8376 79.5901 65.8604C79.5255 66.0131 79.4837 66.1744 79.4661 66.3391C79.4332 66.5976 79.4202 66.8582 79.4272 67.1186L79.4638 68.1052C79.5322 69.4465 79.6742 70.7826 79.8686 72.1093C80.268 74.7587 80.936 77.3605 81.8623 79.8746C82.5019 81.6602 83.3364 83.3698 84.3507 84.9725C84.835 85.7259 85.3779 86.44 85.9744 87.1081C86.2614 87.4298 86.5645 87.7367 86.8824 88.0279C87.0429 88.17 87.1925 88.3224 87.3571 88.4592L87.8509 88.8682C89.3307 90.0022 90.9891 90.8817 92.758 91.4705C94.6292 92.1031 96.5502 92.5778 98.5008 92.8894C100.455 93.2528 102.433 93.4796 104.419 93.5684C106.264 93.6577 108.108 93.3902 109.851 92.7805L109.914 96.1571C108.188 95.5702 106.239 95.474 104.237 95.6757C103.235 95.7703 102.218 95.9361 101.191 96.1338C100.162 96.3347 99.1404 96.5607 98.1359 96.8207C95.9839 97.3508 93.9076 98.1508 91.9561 99.2016C90.0595 100.219 88.377 101.593 87.0009 103.248C85.6374 104.948 84.5602 106.859 83.8119 108.905C83.0405 111 82.5018 113.174 82.2055 115.387C81.708 118.873 81.6549 122.473 81.6088 126.122L78.6628 125.638C80.6252 119.854 79.9407 113.186 77.0039 107.764C76.8118 107.43 76.6415 107.081 76.4326 106.758L75.8044 105.787C75.5909 105.466 75.3463 105.168 75.1191 104.857C75.0015 104.704 74.8928 104.544 74.7679 104.398L74.3888 103.963C73.8859 103.38 73.354 102.822 72.795 102.292C72.2085 101.792 71.64 101.267 71.0046 100.824C70.6999 100.585 70.3833 100.362 70.056 100.155C69.7284 99.9488 69.4086 99.729 69.0749 99.5318L68.0559 98.9686C67.7188 98.7756 67.3562 98.6315 67.0079 98.4597C65.595 97.8024 64.1176 97.2937 62.5995 96.9419C58.9822 96.0926 55.226 96.0196 51.5784 96.7277L51.5403 95.2801C53.7245 95.9443 56.0173 96.1768 58.2904 95.9648C59.5807 95.8433 60.2356 95.8085 60.2302 96.0862C60.2216 96.2087 60.0511 96.4212 59.6837 96.6632C59.4609 96.81 59.2276 96.9403 58.9858 97.0531C58.8445 97.1219 58.6905 97.1916 58.5221 97.2563C58.438 97.2886 58.3515 97.3259 58.2602 97.3552C58.1682 97.3819 58.0732 97.4083 57.975 97.4342C55.6952 98.0331 53.3135 98.1362 50.9905 97.7365C50.606 97.669 50.2551 97.4749 49.9938 97.185C49.7324 96.895 49.5756 96.526 49.5482 96.1366C49.5209 95.7472 49.6247 95.3599 49.843 95.0363C50.0613 94.7127 50.3816 94.4714 50.7529 94.351L50.9002 94.3038C53.208 93.568 55.6159 93.1948 58.0382 93.1975C60.0272 93.1917 62.0085 93.445 63.9321 93.9511C65.8689 94.4524 67.7454 95.1631 69.5283 96.0708C69.5471 96.0578 69.565 96.046 69.5868 96.0341Z" fill="white"/>
</svg>
