<svg width="40" height="40" viewBox="0 0 40 40" fill="none" xmlns="http://www.w3.org/2000/svg">
<path d="M35.2598 24.201C36.7732 24.201 38 22.9741 38 21.4607C38 19.9473 36.7732 18.7205 35.2598 18.7205C33.7464 18.7205 32.5195 19.9473 32.5195 21.4607C32.5195 22.9741 33.7464 24.201 35.2598 24.201Z" stroke="#5E72E4" stroke-opacity="0.25" stroke-width="1.5" stroke-miterlimit="10" stroke-linejoin="round"/>
<path d="M12.3667 1V10.7486" stroke="#5E72E4" stroke-opacity="0.25" stroke-width="1.5" stroke-miterlimit="10" stroke-linejoin="round"/>
<path d="M7.48926 5.87476H17.2428" stroke="#5E72E4" stroke-opacity="0.25" stroke-width="1.5" stroke-miterlimit="10" stroke-linejoin="round"/>
<path d="M16.495 31.6069C14.5343 31.6069 12.654 32.3858 11.2676 33.7722C9.88114 35.1586 9.10225 37.039 9.10225 38.9997C9.10225 37.039 8.32341 35.1586 6.937 33.7722C5.55058 32.3858 3.67016 31.6069 1.70947 31.6069C3.67016 31.6069 5.55058 30.828 6.937 29.4416C8.32341 28.0552 9.10225 26.1748 9.10225 24.2141C9.10225 26.1748 9.88114 28.0552 11.2676 29.4416C12.654 30.828 14.5343 31.6069 16.495 31.6069Z" stroke="#5E72E4" stroke-opacity="0.25" stroke-width="1.5" stroke-miterlimit="10" stroke-linejoin="round"/>
</svg>
