<svg width="20" height="20" viewBox="0 0 20 20" fill="none" xmlns="http://www.w3.org/2000/svg"><rect x="1" y="1" width="18" height="18" rx="9" fill="white"></rect><path d="M8.4773 2.80234C9.21702 1.73255 10.7828 1.73255 11.5225 2.80234C11.9706 3.45043 12.7717 3.74544 13.5267 3.54042C14.773 3.20199 15.9725 4.22029 15.8595 5.52087C15.791 6.30877 16.2173 7.05577 16.9259 7.38975C18.0957 7.94104 18.3675 9.50115 17.4547 10.424C16.9017 10.983 16.7537 11.8325 17.0844 12.5492C17.6302 13.7322 16.8473 15.1042 15.5618 15.2174C14.783 15.286 14.1299 15.8405 13.9279 16.6046C13.5944 17.8658 12.1231 18.4076 11.0663 17.6583C10.4262 17.2044 9.57363 17.2044 8.93345 17.6583C7.87671 18.4076 6.40539 17.8658 6.07192 16.6046C5.86989 15.8405 5.21682 15.286 4.43803 15.2174C3.15249 15.1042 2.36961 13.7322 2.91544 12.5492C3.24611 11.8325 3.09807 10.983 2.54507 10.424C1.63224 9.50115 1.90413 7.94104 3.07386 7.38975C3.78249 7.05577 4.20875 6.30877 4.1403 5.52087C4.02731 4.22029 5.22675 3.20199 6.47304 3.54042C7.22807 3.74544 8.02918 3.45043 8.4773 2.80234Z" fill="url(#paint0_linear_11664_9169)"></path><path d="M6.66667 10.254L8.66667 12.1112L13.3333 7.77783" stroke="#fff" stroke-width="1.2" stroke-linecap="round" stroke-linejoin="round"></path><rect x="1" y="1" width="18" height="18" rx="9" stroke="white" stroke-width="2"></rect><defs><linearGradient id="paint0_linear_11664_9169" x1="9.9999" y1="2" x2="9.9999" y2="18" gradientUnits="userSpaceOnUse"><stop stop-color="#27AE60"></stop><stop offset="1" stop-color="#1E874B"></stop></linearGradient></defs></svg>